<svg width="24" height="24" viewBox="0 0 24 24" fill="none" xmlns="http://www.w3.org/2000/svg">
<g clip-path="url(#clip0_88_2959)">
<path d="M18 4.5H2.25C1.85218 4.5 1.47064 4.65804 1.18934 4.93934C0.908035 5.22064 0.75 5.60218 0.75 6V10.5H8.6775C8.76386 10.1822 8.95238 9.90172 9.21397 9.70172C9.47557 9.50173 9.79571 9.39337 10.125 9.39337C10.4543 9.39337 10.7744 9.50173 11.036 9.70172C11.2976 9.90172 11.4861 10.1822 11.5725 10.5H19.5V6C19.5 5.60218 19.342 5.22064 19.0607 4.93934C18.7794 4.65804 18.3978 4.5 18 4.5Z" fill="#041F21"/>
<path d="M18 12.75C16.9617 12.75 15.9466 13.0579 15.0833 13.6348C14.2199 14.2117 13.547 15.0316 13.1496 15.9909C12.7523 16.9502 12.6483 18.0058 12.8509 19.0242C13.0535 20.0426 13.5535 20.9781 14.2877 21.7123C15.0219 22.4465 15.9574 22.9466 16.9758 23.1491C17.9942 23.3517 19.0498 23.2477 20.0091 22.8504C20.9684 22.453 21.7883 21.7801 22.3652 20.9167C22.9421 20.0534 23.25 19.0384 23.25 18C23.25 16.6076 22.6969 15.2723 21.7123 14.2877C20.7277 13.3031 19.3924 12.75 18 12.75ZM19.875 18.375H17.9738C17.8813 18.375 17.7926 18.3383 17.7271 18.2729C17.6617 18.2074 17.625 18.1187 17.625 18.0262V15C17.625 14.9005 17.6645 14.8052 17.7348 14.7348C17.8052 14.6645 17.9005 14.625 18 14.625C18.0995 14.625 18.1948 14.6645 18.2652 14.7348C18.3355 14.8052 18.375 14.9005 18.375 15V17.625H19.875C19.9745 17.625 20.0698 17.6645 20.1402 17.7348C20.2105 17.8052 20.25 17.9005 20.25 18C20.25 18.0995 20.2105 18.1948 20.1402 18.2652C20.0698 18.3355 19.9745 18.375 19.875 18.375Z" fill="#041F21"/>
<path d="M6.75 3.75V3.375C6.75 2.35875 8.295 1.5 10.125 1.5C11.955 1.5 13.5 2.35875 13.5 3.375V3.75H15.75V3.375C15.75 3.27554 15.7105 3.18016 15.6402 3.10984C15.5698 3.03951 15.4745 3 15.375 3H14.205C13.9275 1.71375 12.2362 0.75 10.125 0.75C8.01375 0.75 6.3225 1.71375 6.045 3H4.875C4.77554 3 4.68016 3.03951 4.60984 3.10984C4.53951 3.18016 4.5 3.27554 4.5 3.375V3.75H6.75Z" fill="#041F21"/>
<path d="M11.5725 11.25C11.4861 11.5678 11.2976 11.8483 11.036 12.0483C10.7744 12.2483 10.4543 12.3566 10.125 12.3566C9.79571 12.3566 9.47557 12.2483 9.21397 12.0483C8.95238 11.8483 8.76386 11.5678 8.6775 11.25H0.75V18C0.75 18.3978 0.908035 18.7794 1.18934 19.0607C1.47064 19.342 1.85218 19.5 2.25 19.5H12.1987C12.0677 19.0107 12.0009 18.5065 12 18C12 16.4087 12.6321 14.8826 13.7574 13.7574C14.8826 12.6321 16.4087 12 18 12C18.5065 12.0009 19.0107 12.0677 19.5 12.1987V11.25H11.5725Z" fill="#041F21"/>
</g>
<defs>
<clipPath id="clip0_88_2959">
<rect width="24" height="24" fill="white"/>
</clipPath>
</defs>
</svg>
