<svg width="176" height="56" viewBox="0 0 176 56" fill="none" xmlns="http://www.w3.org/2000/svg">
<g clip-path="url(#clip0_146_767)">
<path d="M22.0909 19.8282V25.6804H36.2138C35.8389 28.9177 34.7141 31.408 32.9643 33.0267C30.9646 35.0189 27.7151 37.2602 22.0909 37.2602C13.4671 37.2602 6.71806 30.2874 6.71806 21.6959C6.71806 13.1044 13.3421 6.13159 22.0909 6.13159C26.7152 6.13159 30.2147 7.99931 32.7143 10.3651L36.8388 6.25611C33.3393 2.89422 28.5899 0.279419 22.0909 0.279419C10.2176 0.279419 0.218994 9.86703 0.218994 21.6959C0.218994 33.5248 10.2176 43.1124 22.0909 43.1124C28.465 43.1124 33.3393 40.9956 37.0887 37.1357C40.9632 33.2757 42.213 27.7971 42.213 23.4391C42.213 22.0694 42.088 20.8243 41.963 19.8282H22.0909Z" fill="#4285F4"/>
<path d="M59.7104 14.9722C52.0865 14.9722 45.7124 20.8243 45.7124 28.7933C45.7124 36.7622 51.9615 42.6144 59.7104 42.6144C67.4593 42.6144 73.7084 36.8867 73.7084 28.9178C73.7084 20.8243 67.4593 14.9722 59.7104 14.9722ZM59.7104 37.2602C55.461 37.2602 51.8365 33.7738 51.8365 28.9178C51.8365 23.9372 55.461 20.5753 59.7104 20.5753C63.9598 20.5753 67.5843 23.9372 67.5843 28.9178C67.5843 33.7738 63.9598 37.2602 59.7104 37.2602Z" fill="#EA4335"/>
<path d="M128.076 18.085H127.826C126.451 16.4663 123.826 14.9722 120.452 14.9722C113.453 14.9722 107.454 20.9489 107.454 28.7933C107.454 36.5132 113.453 42.6144 120.452 42.6144C123.826 42.6144 126.451 41.1202 127.826 39.5015H128.076V41.4937C128.076 46.7233 125.201 49.5872 120.702 49.5872C116.952 49.5872 114.703 46.9724 113.703 44.6066L108.453 46.8479C109.953 50.4588 114.078 55.0658 120.827 55.0658C127.951 55.0658 134.075 50.8323 134.075 40.6221V15.7193H128.326V18.085H128.076ZM121.077 37.2602C116.827 37.2602 113.703 33.6493 113.703 28.9178C113.703 24.0617 116.952 20.5753 121.077 20.5753C125.201 20.5753 128.451 24.1862 128.451 29.0423C128.576 33.7738 125.326 37.2602 121.077 37.2602Z" fill="#4285F4"/>
<path d="M90.831 14.9722C83.2071 14.9722 76.833 20.8243 76.833 28.7933C76.833 36.7622 83.0821 42.6144 90.831 42.6144C98.5799 42.6144 104.829 36.8867 104.829 28.9178C104.829 20.8243 98.5799 14.9722 90.831 14.9722ZM90.831 37.2602C86.5816 37.2602 82.9571 33.7738 82.9571 28.9178C82.9571 23.9372 86.5816 20.5753 90.831 20.5753C95.0804 20.5753 98.7049 23.9372 98.7049 28.9178C98.7049 33.7738 95.0804 37.2602 90.831 37.2602Z" fill="#FBBC05"/>
<path d="M138.699 0.901978H144.698V42.7388H138.699V0.901978Z" fill="#34A853"/>
<path d="M163.196 37.2602C160.071 37.2602 157.946 35.8906 156.447 33.0268L175.069 25.4314L174.444 23.8127C173.319 20.6998 169.695 14.9722 162.571 14.9722C155.447 14.9722 149.448 20.5753 149.448 28.7933C149.448 36.5132 155.322 42.6144 163.196 42.6144C169.57 42.6144 173.194 38.7544 174.819 36.5132L170.07 33.4003C168.445 35.7661 166.32 37.2602 163.196 37.2602ZM162.821 20.2018C165.32 20.2018 167.445 21.4469 168.07 23.1901L155.572 28.4197C155.447 22.6921 159.696 20.2018 162.821 20.2018Z" fill="#EA4335"/>
</g>
<defs>
<clipPath id="clip0_146_767">
<rect width="174.85" height="54.7863" fill="white" transform="translate(0.218994 0.279419)"/>
</clipPath>
</defs>
</svg>
