<svg width="61" height="60" viewBox="0 0 61 60" fill="none" xmlns="http://www.w3.org/2000/svg">
<path fill-rule="evenodd" clip-rule="evenodd" d="M37.7002 27.3378H51.9258V30.2194H37.7002V27.3378Z" fill="#FFC42E"/>
<path fill-rule="evenodd" clip-rule="evenodd" d="M37.7002 27.6727H39.0466V29.7592H37.7002V27.6727Z" fill="#FFD861"/>
<path fill-rule="evenodd" clip-rule="evenodd" d="M37.7002 27.3378H51.9258V27.6728H37.7002V27.3378Z" fill="#FFD147"/>
<path fill-rule="evenodd" clip-rule="evenodd" d="M50.1299 27.8848C50.1723 28.1922 50.1935 28.5082 50.1935 28.8305C50.1935 29.1485 50.1723 29.4581 50.132 29.7592H51.9258V27.8848H50.1299Z" fill="#FAAA20"/>
<path fill-rule="evenodd" clip-rule="evenodd" d="M37.7002 27.8848H51.9258V27.6727H37.7002V27.8848Z" fill="#FFAF26"/>
<path fill-rule="evenodd" clip-rule="evenodd" d="M37.7002 27.6727H39.0466V27.8848H37.7002V27.6727Z" fill="#FFC42E"/>
<path fill-rule="evenodd" clip-rule="evenodd" d="M37.7002 29.7593H51.9258V30.2194H37.7002V29.7593Z" fill="#FFAF26"/>
<path fill-rule="evenodd" clip-rule="evenodd" d="M39.2185 30.2194H53.4441V33.1031H39.2185V30.2194Z" fill="#FFC42E"/>
<path fill-rule="evenodd" clip-rule="evenodd" d="M39.2185 30.5565H40.5628V32.643H39.2185V30.5565Z" fill="#FFD861"/>
<path fill-rule="evenodd" clip-rule="evenodd" d="M39.2185 30.2194H53.4441V30.5565H39.2185V30.2194Z" fill="#FFD147"/>
<path fill-rule="evenodd" clip-rule="evenodd" d="M51.6482 30.7686C51.6906 31.0739 51.7118 31.3898 51.7118 31.7142C51.7118 32.0302 51.6906 32.3419 51.6503 32.643H53.4442V30.7686H51.6482Z" fill="#FAAA20"/>
<path fill-rule="evenodd" clip-rule="evenodd" d="M39.2185 30.7686H53.4441V30.5565H39.2185V30.7686Z" fill="#FFAF26"/>
<path fill-rule="evenodd" clip-rule="evenodd" d="M39.2185 30.5565H40.5628V30.7686H39.2185V30.5565Z" fill="#FFC42E"/>
<path fill-rule="evenodd" clip-rule="evenodd" d="M39.2185 32.6429H53.4441V33.1031H39.2185V32.6429Z" fill="#FFAF26"/>
<path fill-rule="evenodd" clip-rule="evenodd" d="M37.7002 33.1031H51.9258V35.9869H37.7002V33.1031Z" fill="#FFC42E"/>
<path fill-rule="evenodd" clip-rule="evenodd" d="M37.7002 33.4403H39.0466V35.5268H37.7002V33.4403Z" fill="#FFD861"/>
<path fill-rule="evenodd" clip-rule="evenodd" d="M37.7002 33.1031H51.9258V33.4403H37.7002V33.1031Z" fill="#FFD147"/>
<path fill-rule="evenodd" clip-rule="evenodd" d="M50.1299 33.6501C50.1723 33.9576 50.1935 34.2735 50.1935 34.5958C50.1935 34.9139 50.1723 35.2235 50.132 35.5267H51.9258V33.6501H50.1299Z" fill="#FAAA20"/>
<path fill-rule="evenodd" clip-rule="evenodd" d="M37.7002 33.6502H51.9258V33.4403H37.7002V33.6502Z" fill="#FFAF26"/>
<path fill-rule="evenodd" clip-rule="evenodd" d="M37.7002 33.4403H39.0466V33.6502H37.7002V33.4403Z" fill="#FFC42E"/>
<path fill-rule="evenodd" clip-rule="evenodd" d="M37.7002 35.5267H51.9258V35.9869H37.7002V35.5267Z" fill="#FFAF26"/>
<path fill-rule="evenodd" clip-rule="evenodd" d="M37.7002 35.9868H51.9258V38.8705H37.7002V35.9868Z" fill="#FFC42E"/>
<path fill-rule="evenodd" clip-rule="evenodd" d="M37.7002 36.3218H39.0466V38.4103H37.7002V36.3218Z" fill="#FFD861"/>
<path fill-rule="evenodd" clip-rule="evenodd" d="M37.7002 35.9868H51.9258V36.3218H37.7002V35.9868Z" fill="#FFD147"/>
<path fill-rule="evenodd" clip-rule="evenodd" d="M50.1299 36.5338C50.1723 36.8413 50.1935 37.1572 50.1935 37.4795C50.1935 37.7976 50.1723 38.1071 50.132 38.4103H51.9258V36.5338H50.1299Z" fill="#FAAA20"/>
<path fill-rule="evenodd" clip-rule="evenodd" d="M37.7002 36.5338H51.9258V36.3218H37.7002V36.5338Z" fill="#FFAF26"/>
<path fill-rule="evenodd" clip-rule="evenodd" d="M37.7002 36.3218H39.0466V36.5338H37.7002V36.3218Z" fill="#FFC42E"/>
<path fill-rule="evenodd" clip-rule="evenodd" d="M37.7002 38.4104H51.9258V38.8705H37.7002V38.4104Z" fill="#FFAF26"/>
<path fill-rule="evenodd" clip-rule="evenodd" d="M36.5742 38.8705H50.7998V41.7521H36.5742V38.8705Z" fill="#FFC42E"/>
<path fill-rule="evenodd" clip-rule="evenodd" d="M36.5742 39.2054H37.9207V41.2919H36.5742V39.2054Z" fill="#FFD861"/>
<path fill-rule="evenodd" clip-rule="evenodd" d="M36.5742 38.8705H50.7998V39.2055H36.5742V38.8705Z" fill="#FFD147"/>
<path fill-rule="evenodd" clip-rule="evenodd" d="M49.0059 39.4175C49.0461 39.7249 49.0674 40.0409 49.0674 40.3632C49.0674 40.6791 49.0483 40.9908 49.008 41.2919H50.7997V39.4175H49.0059Z" fill="#FAAA20"/>
<path fill-rule="evenodd" clip-rule="evenodd" d="M36.5742 39.4175H50.7998V39.2054H36.5742V39.4175Z" fill="#FFAF26"/>
<path fill-rule="evenodd" clip-rule="evenodd" d="M36.5742 39.2054H37.9207V39.4175H36.5742V39.2054Z" fill="#FFC42E"/>
<path fill-rule="evenodd" clip-rule="evenodd" d="M36.5742 41.292H50.7998V41.7521H36.5742V41.292Z" fill="#FFAF26"/>
<path fill-rule="evenodd" clip-rule="evenodd" d="M37.7002 41.7521H51.9258V44.6358H37.7002V41.7521Z" fill="#FFC42E"/>
<path fill-rule="evenodd" clip-rule="evenodd" d="M37.7002 42.0892H39.0466V44.1757H37.7002V42.0892Z" fill="#FFD861"/>
<path fill-rule="evenodd" clip-rule="evenodd" d="M37.7002 41.7521H51.9258V42.0892H37.7002V41.7521Z" fill="#FFD147"/>
<path fill-rule="evenodd" clip-rule="evenodd" d="M50.1299 42.2991C50.1723 42.6065 50.1935 42.9225 50.1935 43.2469C50.1935 43.5628 50.1723 43.8745 50.132 44.1756H51.9258V42.2991H50.1299Z" fill="#FAAA20"/>
<path fill-rule="evenodd" clip-rule="evenodd" d="M37.7002 42.2992H51.9258V42.0892H37.7002V42.2992Z" fill="#FFAF26"/>
<path fill-rule="evenodd" clip-rule="evenodd" d="M37.7002 42.0892H39.0466V42.2992H37.7002V42.0892Z" fill="#FFC42E"/>
<path fill-rule="evenodd" clip-rule="evenodd" d="M37.7002 44.1757H51.9258V44.6358H37.7002V44.1757Z" fill="#FFAF26"/>
<path fill-rule="evenodd" clip-rule="evenodd" d="M36.4492 44.6359H50.6748V47.5196H36.4492V44.6359Z" fill="#FFC42E"/>
<path fill-rule="evenodd" clip-rule="evenodd" d="M36.4492 44.973H37.7935V47.0595H36.4492V44.973Z" fill="#FFD861"/>
<path fill-rule="evenodd" clip-rule="evenodd" d="M36.4492 44.6359H50.6748V44.973H36.4492V44.6359Z" fill="#FFD147"/>
<path fill-rule="evenodd" clip-rule="evenodd" d="M48.8789 45.1829C48.9192 45.4903 48.9425 45.8063 48.9425 46.1285C48.9425 46.4466 48.9213 46.7562 48.881 47.0594H50.6749V45.1829H48.8789Z" fill="#FAAA20"/>
<path fill-rule="evenodd" clip-rule="evenodd" d="M36.4492 45.1829H50.6748V44.973H36.4492V45.1829Z" fill="#FFAF26"/>
<path fill-rule="evenodd" clip-rule="evenodd" d="M36.4492 44.973H37.7935V45.1829H36.4492V44.973Z" fill="#FFC42E"/>
<path fill-rule="evenodd" clip-rule="evenodd" d="M36.4492 47.0594H50.6748V47.5196H36.4492V47.0594Z" fill="#FFAF26"/>
<path fill-rule="evenodd" clip-rule="evenodd" d="M37.7002 47.5195H51.9258V50.4011H37.7002V47.5195Z" fill="#FFC42E"/>
<path fill-rule="evenodd" clip-rule="evenodd" d="M37.7002 47.8545H39.0466V49.9431H37.7002V47.8545Z" fill="#FFD861"/>
<path fill-rule="evenodd" clip-rule="evenodd" d="M37.7002 47.5195H51.9258V47.8546H37.7002V47.5195Z" fill="#FFD147"/>
<path fill-rule="evenodd" clip-rule="evenodd" d="M50.1299 48.0665C50.1723 48.374 50.1935 48.6899 50.1935 49.0122C50.1935 49.3282 50.1723 49.6398 50.132 49.9431H51.9258V48.0665H50.1299Z" fill="#FAAA20"/>
<path fill-rule="evenodd" clip-rule="evenodd" d="M37.7002 48.0665H51.9258V47.8545H37.7002V48.0665Z" fill="#FFAF26"/>
<path fill-rule="evenodd" clip-rule="evenodd" d="M37.7002 47.8545H39.0466V48.0665H37.7002V47.8545Z" fill="#FFC42E"/>
<path fill-rule="evenodd" clip-rule="evenodd" d="M37.7002 49.9431H51.9258V50.4011H37.7002V49.9431Z" fill="#FFAF26"/>
<path fill-rule="evenodd" clip-rule="evenodd" d="M38.6121 24.4541H52.8377V27.3378H38.6121V24.4541Z" fill="#FFC42E"/>
<path fill-rule="evenodd" clip-rule="evenodd" d="M38.6121 24.7913H39.9585V26.8777H38.6121V24.7913Z" fill="#FFD861"/>
<path fill-rule="evenodd" clip-rule="evenodd" d="M38.6121 24.4541H52.8377V24.7912H38.6121V24.4541Z" fill="#FFD147"/>
<path fill-rule="evenodd" clip-rule="evenodd" d="M51.0417 25.0012C51.0842 25.3087 51.1054 25.6246 51.1054 25.9469C51.1054 26.265 51.0842 26.5745 51.0439 26.8778H52.8377V25.0012H51.0417Z" fill="#FAAA20"/>
<path fill-rule="evenodd" clip-rule="evenodd" d="M38.6121 25.0012H52.8377V24.7913H38.6121V25.0012Z" fill="#FFAF26"/>
<path fill-rule="evenodd" clip-rule="evenodd" d="M38.6121 24.7913H39.9585V25.0012H38.6121V24.7913Z" fill="#FFC42E"/>
<path fill-rule="evenodd" clip-rule="evenodd" d="M38.6121 26.8777H52.8377V27.3378H38.6121V26.8777Z" fill="#FFAF26"/>
<path fill-rule="evenodd" clip-rule="evenodd" d="M21.6172 35.9868H35.8428V38.8705H21.6172V35.9868Z" fill="#FFC42E"/>
<path fill-rule="evenodd" clip-rule="evenodd" d="M21.6172 36.3218H22.9636V38.4103H21.6172V36.3218Z" fill="#FFD861"/>
<path fill-rule="evenodd" clip-rule="evenodd" d="M21.6172 35.9868H35.8428V36.3218H21.6172V35.9868Z" fill="#FFD147"/>
<path fill-rule="evenodd" clip-rule="evenodd" d="M34.0469 36.5338C34.0893 36.8413 34.1105 37.1572 34.1105 37.4795C34.1105 37.7976 34.0893 38.1071 34.049 38.4103H35.8428V36.5338H34.0469Z" fill="#FAAA20"/>
<path fill-rule="evenodd" clip-rule="evenodd" d="M21.6172 36.5338H35.8428V36.3218H21.6172V36.5338Z" fill="#FFAF26"/>
<path fill-rule="evenodd" clip-rule="evenodd" d="M21.6172 36.3218H22.9636V36.5338H21.6172V36.3218Z" fill="#FFC42E"/>
<path fill-rule="evenodd" clip-rule="evenodd" d="M21.6172 38.4104H35.8428V38.8705H21.6172V38.4104Z" fill="#FFAF26"/>
<path fill-rule="evenodd" clip-rule="evenodd" d="M18.9773 38.8705H33.2029V41.7521H18.9773V38.8705Z" fill="#FFC42E"/>
<path fill-rule="evenodd" clip-rule="evenodd" d="M18.9773 39.2054H20.3237V41.2919H18.9773V39.2054Z" fill="#FFD861"/>
<path fill-rule="evenodd" clip-rule="evenodd" d="M18.9773 38.8705H33.2029V39.2055H18.9773V38.8705Z" fill="#FFD147"/>
<path fill-rule="evenodd" clip-rule="evenodd" d="M31.407 39.4175C31.4494 39.7249 31.4706 40.0409 31.4706 40.3632C31.4706 40.6791 31.4494 40.9908 31.4091 41.2919H33.2029V39.4175H31.407Z" fill="#FAAA20"/>
<path fill-rule="evenodd" clip-rule="evenodd" d="M18.9773 39.4175H33.2029V39.2054H18.9773V39.4175Z" fill="#FFAF26"/>
<path fill-rule="evenodd" clip-rule="evenodd" d="M18.9773 39.2054H20.3237V39.4175H18.9773V39.2054Z" fill="#FFC42E"/>
<path fill-rule="evenodd" clip-rule="evenodd" d="M18.9773 41.292H33.2029V41.7521H18.9773V41.292Z" fill="#FFAF26"/>
<path fill-rule="evenodd" clip-rule="evenodd" d="M20.4106 41.7521H34.6362V44.6358H20.4106V41.7521Z" fill="#FFC42E"/>
<path fill-rule="evenodd" clip-rule="evenodd" d="M20.4106 42.0892H21.7571V44.1757H20.4106V42.0892Z" fill="#FFD861"/>
<path fill-rule="evenodd" clip-rule="evenodd" d="M20.4106 41.7521H34.6362V42.0892H20.4106V41.7521Z" fill="#FFD147"/>
<path fill-rule="evenodd" clip-rule="evenodd" d="M32.8403 42.2991C32.8827 42.6065 32.9039 42.9225 32.9039 43.2469C32.9039 43.5628 32.8827 43.8745 32.8425 44.1756H34.6363V42.2991H32.8403Z" fill="#FAAA20"/>
<path fill-rule="evenodd" clip-rule="evenodd" d="M20.4106 42.2992H34.6362V42.0892H20.4106V42.2992Z" fill="#FFAF26"/>
<path fill-rule="evenodd" clip-rule="evenodd" d="M20.4106 42.0892H21.7571V42.2992H20.4106V42.0892Z" fill="#FFC42E"/>
<path fill-rule="evenodd" clip-rule="evenodd" d="M20.4106 44.1757H34.6362V44.6358H20.4106V44.1757Z" fill="#FFAF26"/>
<path fill-rule="evenodd" clip-rule="evenodd" d="M19.1575 44.6359H33.3831V47.5196H19.1575V44.6359Z" fill="#FFC42E"/>
<path fill-rule="evenodd" clip-rule="evenodd" d="M19.1575 44.973H20.5039V47.0595H19.1575V44.973Z" fill="#FFD861"/>
<path fill-rule="evenodd" clip-rule="evenodd" d="M19.1575 44.6359H33.3831V44.973H19.1575V44.6359Z" fill="#FFD147"/>
<path fill-rule="evenodd" clip-rule="evenodd" d="M31.5891 45.1829C31.6294 45.4903 31.6527 45.8063 31.6527 46.1285C31.6527 46.4466 31.6315 46.7562 31.5912 47.0594H33.3829V45.1829H31.5891Z" fill="#FAAA20"/>
<path fill-rule="evenodd" clip-rule="evenodd" d="M19.1575 45.1829H33.3831V44.973H19.1575V45.1829Z" fill="#FFAF26"/>
<path fill-rule="evenodd" clip-rule="evenodd" d="M19.1575 44.973H20.5039V45.1829H19.1575V44.973Z" fill="#FFC42E"/>
<path fill-rule="evenodd" clip-rule="evenodd" d="M19.1575 47.0594H33.3831V47.5196H19.1575V47.0594Z" fill="#FFAF26"/>
<path fill-rule="evenodd" clip-rule="evenodd" d="M20.4106 47.5195H34.6362V50.4011H20.4106V47.5195Z" fill="#FFC42E"/>
<path fill-rule="evenodd" clip-rule="evenodd" d="M20.4106 47.8545H21.7571V49.9431H20.4106V47.8545Z" fill="#FFD861"/>
<path fill-rule="evenodd" clip-rule="evenodd" d="M20.4106 47.5195H34.6362V47.8546H20.4106V47.5195Z" fill="#FFD147"/>
<path fill-rule="evenodd" clip-rule="evenodd" d="M32.8403 48.0665C32.8827 48.374 32.9039 48.6899 32.9039 49.0122C32.9039 49.3282 32.8827 49.6398 32.8425 49.9431H34.6363V48.0665H32.8403Z" fill="#FAAA20"/>
<path fill-rule="evenodd" clip-rule="evenodd" d="M20.4106 48.0665H34.6362V47.8545H20.4106V48.0665Z" fill="#FFAF26"/>
<path fill-rule="evenodd" clip-rule="evenodd" d="M20.4106 47.8545H21.7571V48.0665H20.4106V47.8545Z" fill="#FFC42E"/>
<path fill-rule="evenodd" clip-rule="evenodd" d="M20.4106 49.9431H34.6362V50.4011H20.4106V49.9431Z" fill="#FFAF26"/>
<path fill-rule="evenodd" clip-rule="evenodd" d="M2.96436 41.7521H17.19V44.6358H2.96436V41.7521Z" fill="#FFC42E"/>
<path fill-rule="evenodd" clip-rule="evenodd" d="M2.96436 42.0892H4.31079V44.1757H2.96436V42.0892Z" fill="#FFD861"/>
<path fill-rule="evenodd" clip-rule="evenodd" d="M2.96436 41.7521H17.19V42.0892H2.96436V41.7521Z" fill="#FFD147"/>
<path fill-rule="evenodd" clip-rule="evenodd" d="M15.394 42.2991C15.4365 42.6065 15.4577 42.9225 15.4577 43.2469C15.4577 43.5628 15.4365 43.8745 15.3962 44.1756H17.19V42.2991H15.394Z" fill="#FAAA20"/>
<path fill-rule="evenodd" clip-rule="evenodd" d="M2.96436 42.2992H17.19V42.0892H2.96436V42.2992Z" fill="#FFAF26"/>
<path fill-rule="evenodd" clip-rule="evenodd" d="M2.96436 42.0892H4.31079V42.2992H2.96436V42.0892Z" fill="#FFC42E"/>
<path fill-rule="evenodd" clip-rule="evenodd" d="M2.96436 44.1757H17.19V44.6358H2.96436V44.1757Z" fill="#FFAF26"/>
<path fill-rule="evenodd" clip-rule="evenodd" d="M3.76367 44.6357H17.9893V47.5195H3.76367V44.6357Z" fill="#FFC42E"/>
<path fill-rule="evenodd" clip-rule="evenodd" d="M3.76367 44.9729H5.11011V47.0593H3.76367V44.9729Z" fill="#FFD861"/>
<path fill-rule="evenodd" clip-rule="evenodd" d="M3.76367 44.6357H17.9893V44.9729H3.76367V44.6357Z" fill="#FFD147"/>
<path fill-rule="evenodd" clip-rule="evenodd" d="M16.1934 45.1827C16.2358 45.4902 16.257 45.8061 16.257 46.1284C16.257 46.4465 16.2358 46.7561 16.1955 47.0593H17.9893V45.1827H16.1934Z" fill="#FAAA20"/>
<path fill-rule="evenodd" clip-rule="evenodd" d="M3.76367 45.1828H17.9893V44.9729H3.76367V45.1828Z" fill="#FFAF26"/>
<path fill-rule="evenodd" clip-rule="evenodd" d="M3.76367 44.9729H5.11011V45.1828H3.76367V44.9729Z" fill="#FFC42E"/>
<path fill-rule="evenodd" clip-rule="evenodd" d="M3.76367 47.0593H17.9893V47.5194H3.76367V47.0593Z" fill="#FFAF26"/>
<path fill-rule="evenodd" clip-rule="evenodd" d="M2.32178 47.5195H16.5474V50.4011H2.32178V47.5195Z" fill="#FFC42E"/>
<path fill-rule="evenodd" clip-rule="evenodd" d="M2.32178 47.8545H3.66822V49.9431H2.32178V47.8545Z" fill="#FFD861"/>
<path fill-rule="evenodd" clip-rule="evenodd" d="M2.32178 47.5195H16.5474V47.8546H2.32178V47.5195Z" fill="#FFD147"/>
<path fill-rule="evenodd" clip-rule="evenodd" d="M14.7534 48.0665C14.7937 48.374 14.8149 48.6899 14.8149 49.0122C14.8149 49.3282 14.7958 49.6398 14.7555 49.9431H16.5473V48.0665H14.7534Z" fill="#FAAA20"/>
<path fill-rule="evenodd" clip-rule="evenodd" d="M2.32178 48.0665H16.5474V47.8545H2.32178V48.0665Z" fill="#FFAF26"/>
<path fill-rule="evenodd" clip-rule="evenodd" d="M2.32178 47.8545H3.66822V48.0665H2.32178V47.8545Z" fill="#FFC42E"/>
<path fill-rule="evenodd" clip-rule="evenodd" d="M2.32178 49.9431H16.5474V50.4011H2.32178V49.9431Z" fill="#FFAF26"/>
<path fill-rule="evenodd" clip-rule="evenodd" d="M37.7002 43.158C41.7013 43.158 44.9455 46.4 44.9455 50.4012C44.9455 54.4023 41.7013 57.6465 37.7002 57.6465C33.699 57.6465 30.4548 54.4023 30.4548 50.4012C30.4548 46.4 33.699 43.158 37.7002 43.158Z" fill="#FAAA20"/>
<path fill-rule="evenodd" clip-rule="evenodd" d="M37.7003 44.6953C40.8512 44.6953 43.4062 47.2504 43.4062 50.4012C43.4062 53.5542 40.8512 56.1093 37.7003 56.1093C34.5494 56.1093 31.9944 53.5542 31.9944 50.4012C31.9944 47.2504 34.5494 44.6953 37.7003 44.6953Z" fill="#FCE379"/>
<path fill-rule="evenodd" clip-rule="evenodd" d="M37.7003 44.6953C38.9217 44.6953 40.0539 45.0791 40.9827 45.7343C40.1387 45.2402 39.1549 44.9561 38.1053 44.9561C34.9544 44.9561 32.3994 47.5112 32.3994 50.6642C32.3994 52.5916 33.3578 54.2985 34.823 55.3311C33.1309 54.3409 31.9944 52.5047 31.9944 50.4012C31.9944 47.2504 34.5494 44.6953 37.7003 44.6953Z" fill="#F7CF56"/>
<path fill-rule="evenodd" clip-rule="evenodd" d="M35.8535 48.5437C35.8535 48.0433 35.9659 47.6383 36.1864 47.3309C36.409 47.0234 36.7419 46.8241 37.1851 46.7329V46.1816H38.2156V46.7329C38.6672 46.8178 39.0065 47.0128 39.2313 47.3203C39.456 47.6277 39.5684 48.0348 39.5684 48.5437V48.777H38.3768V48.4695C38.3768 48.2024 38.3216 48.0136 38.2114 47.9034C38.099 47.7931 37.9442 47.7401 37.747 47.7401C37.5477 47.7401 37.3929 47.7931 37.2826 47.9034C37.1703 48.0136 37.1151 48.2024 37.1151 48.4695C37.1151 48.724 37.1766 48.9424 37.2996 49.1268C37.4205 49.3113 37.5753 49.4831 37.7576 49.6421C37.9421 49.799 38.1372 49.9559 38.3471 50.1065C38.5591 50.2591 38.7542 50.4309 38.9387 50.6217C39.121 50.8125 39.2758 51.0331 39.3967 51.2833C39.5196 51.5335 39.5811 51.8367 39.5811 52.1887C39.5811 52.6976 39.4666 53.1068 39.2355 53.4185C39.0065 53.7302 38.6672 53.9274 38.2156 54.0122V54.5529H37.1851V54.0122C36.725 53.9274 36.3836 53.7302 36.1588 53.4185C35.932 53.1068 35.8196 52.6976 35.8196 52.1887V51.6798H37.0134V52.2629C37.0134 52.5322 37.0706 52.7188 37.1893 52.8248C37.3081 52.9308 37.4671 52.9838 37.6664 52.9838C37.8636 52.9838 38.0226 52.9308 38.1414 52.8248C38.2601 52.7188 38.3195 52.5322 38.3195 52.2629C38.3195 52.0084 38.258 51.79 38.135 51.6056C38.0142 51.4232 37.8615 51.2515 37.677 51.0924C37.4947 50.9334 37.2975 50.7786 37.0876 50.6259C36.8776 50.4754 36.6805 50.3036 36.496 50.1128C36.3136 49.922 36.161 49.7015 36.038 49.4513C35.915 49.1989 35.8535 48.8978 35.8535 48.5437Z" fill="#FAAA20"/>
<path fill-rule="evenodd" clip-rule="evenodd" d="M39.5832 22.1154L39.9521 24.0831L41.9219 24.4541L39.9521 24.8231L39.5832 26.7929L39.2121 24.8231L37.2444 24.4541L39.2121 24.0831L39.5832 22.1154Z" fill="#ECF0F1"/>
<path fill-rule="evenodd" clip-rule="evenodd" d="M32.6751 42.3756L32.9867 44.8713L35.4845 45.183L32.9867 45.4947L32.6751 47.9925L32.3634 45.4947L29.8677 45.183L32.3634 44.8713L32.6751 42.3756Z" fill="#ECF0F1"/>
<path fill-rule="evenodd" clip-rule="evenodd" d="M7.28125 41.7522L16.0914 27.6687L19.2889 27.6857L8.62769 41.7522H7.28125Z" fill="#61BF6B"/>
<path fill-rule="evenodd" clip-rule="evenodd" d="M16.0916 27.6687L23.8458 35.9869H26.9839L19.2891 27.6857L16.0916 27.6687Z" fill="#72CF7B"/>
<path fill-rule="evenodd" clip-rule="evenodd" d="M33.5528 14.1937L23.8457 35.9869H26.9839L37.9992 14.1937H33.5528Z" fill="#61BF6B"/>
<path fill-rule="evenodd" clip-rule="evenodd" d="M33.5527 14.1937L42.9312 24.4542H48.0455L37.9992 14.1937H33.5527Z" fill="#72CF7B"/>
<path fill-rule="evenodd" clip-rule="evenodd" d="M50.7617 9.02625L42.8569 24.4541H48.0455L55.5707 10.2561L50.7617 9.02625Z" fill="#61BF6B"/>
<path fill-rule="evenodd" clip-rule="evenodd" d="M56.9235 2.36194L47.8525 9.00719L58.4502 11.717L56.9235 2.36194Z" fill="#61BF6B"/>
</svg>
