<svg width="24" height="24" viewBox="0 0 24 24" fill="none" xmlns="http://www.w3.org/2000/svg">
<g clip-path="url(#clip0_88_1513)">
<path fill-rule="evenodd" clip-rule="evenodd" d="M4.65442 0.766299L8.67187 4.78375C8.89034 5.00221 8.89034 5.35735 8.67187 5.57581C7.92965 6.31802 6.83679 7.41089 6.16013 8.09204C5.61845 8.63371 5.5137 9.47675 5.90749 10.1366C5.91085 10.1411 5.91366 10.1456 5.91646 10.1506C6.5147 11.0883 7.6972 12.7716 9.46393 14.5383C11.2301 16.3045 12.9128 17.4864 13.8483 18.0881C13.8533 18.0914 13.8589 18.0942 13.864 18.0976C14.525 18.4925 15.3697 18.3872 15.9142 17.8427L18.4265 15.3304C18.6449 15.1119 19.0001 15.1119 19.2185 15.3304L23.236 19.3479C23.3407 19.4526 23.4001 19.5954 23.4001 19.7439C23.4001 19.8923 23.3407 20.0352 23.236 20.1399C22.6517 20.7236 21.8384 21.5375 21.1214 22.2489C21.1208 22.2495 21.1203 22.25 21.1197 22.2506C20.1708 23.1989 18.8029 23.5961 17.4944 23.3031C14.9882 22.7099 10.9433 21.1555 6.89505 17.1072C2.84679 13.059 1.29235 9.01406 0.694665 6.50848C0.401706 5.19827 0.799413 3.82924 1.74888 2.87978L3.86236 0.766299C3.9671 0.661549 4.10995 0.602173 4.25839 0.602173C4.40683 0.602173 4.54967 0.661549 4.65442 0.766299Z" fill="white"/>
<path fill-rule="evenodd" clip-rule="evenodd" d="M12.1002 2.37858C17.3557 2.37858 21.6231 6.64597 21.6231 11.9015C21.6231 12.2105 21.874 12.4614 22.183 12.4614C22.492 12.4614 22.7429 12.2105 22.7429 11.9015C22.7429 6.02736 17.9743 1.25879 12.1002 1.25879C11.7912 1.25879 11.5403 1.50967 11.5403 1.81868C11.5403 2.12769 11.7912 2.37858 12.1002 2.37858Z" fill="white"/>
<path fill-rule="evenodd" clip-rule="evenodd" d="M12.1006 5.74008C15.5015 5.74008 18.2622 8.5008 18.2622 11.9017C18.2622 12.2109 18.5132 12.462 18.8225 12.462C19.1317 12.462 19.3827 12.2109 19.3827 11.9017C19.3827 7.88279 16.1195 4.61951 12.1006 4.61951C11.7914 4.61951 11.5403 4.87059 11.5403 5.1798C11.5403 5.489 11.7914 5.74008 12.1006 5.74008Z" fill="white"/>
<path fill-rule="evenodd" clip-rule="evenodd" d="M12.1009 9.10077C13.6467 9.10077 14.9017 10.3558 14.9017 11.9016C14.9017 12.2108 15.1526 12.4617 15.4618 12.4617C15.771 12.4617 16.0219 12.2108 16.0219 11.9016C16.0219 9.73757 14.2649 7.98059 12.1009 7.98059C11.7917 7.98059 11.5408 8.23148 11.5408 8.54068C11.5408 8.84989 11.7917 9.10077 12.1009 9.10077Z" fill="white"/>
</g>
<defs>
<clipPath id="clip0_88_1513">
<rect width="24" height="24" fill="white"/>
</clipPath>
</defs>
</svg>
