<svg width="175" height="44" viewBox="0 0 175 44" fill="none" xmlns="http://www.w3.org/2000/svg">
<g clip-path="url(#clip0_149_775)">
<path d="M68.9684 15.7013H74.4911V33.0728H68.9684V15.7013Z" fill="#E60023"/>
<mask id="mask0_149_775" style="mask-type:luminance" maskUnits="userSpaceOnUse" x="0" y="0" width="175" height="44">
<path d="M0.0887451 0.277667H174.939V43.0674H0.0887451V0.277667Z" fill="white"/>
</mask>
<g mask="url(#mask0_149_775)">
<path d="M75.6443 15.7013H80.9636V18.0763H81.0651C82.3527 16.2102 84.0128 15.1925 86.4185 15.1925C90.2131 15.1925 92.4492 17.9067 92.4492 21.7746V33.0728H86.9266V22.8943C86.9266 21.062 86.0119 19.8066 84.2162 19.8066C82.3867 19.8066 81.1668 21.3335 81.1668 23.4709V33.0728H75.6443V15.7013Z" fill="#E60023"/>
<path d="M75.0424 11.0537C75.0424 9.22149 73.5591 7.73634 71.7296 7.73634C69.9001 7.73634 68.4169 9.22149 68.4169 11.0537C68.4169 12.8858 69.9001 14.371 71.7296 14.371C73.5591 14.371 75.0424 12.8858 75.0424 11.0537Z" fill="#E60023"/>
<path d="M131.291 15.4505C131.133 15.4363 130.952 15.4299 130.741 15.4299C128.64 15.4299 127.217 16.346 125.997 18.4156H125.896V15.7014H120.61V33.0726H126.133V25.2692C126.133 21.6534 128.133 19.978 131.291 20.2703V15.4505Z" fill="#E60023"/>
<path d="M158.392 22.1137C156.19 21.7067 154.225 21.5371 154.225 20.3157C154.225 19.2299 155.275 18.721 156.63 18.721C158.155 18.721 159.205 19.196 159.408 20.7568H164.491C164.22 17.33 161.577 15.1924 156.664 15.1924C152.565 15.1924 149.176 17.0924 149.176 20.7568C149.176 24.828 152.395 25.6423 155.411 26.1514C157.714 26.5585 159.815 26.7282 159.815 28.2888C159.815 29.4085 158.765 30.0192 157.105 30.0192C155.439 30.0192 154.337 29.3135 154 27.8818H148.737C149.125 31.4528 152.255 33.6156 157.138 33.6156C161.679 33.6156 165.033 31.6478 165.033 27.8479C165.033 23.4031 161.441 22.6228 158.392 22.1137Z" fill="#E60023"/>
<path d="M139.857 19.1281C141.653 19.1281 142.941 20.4513 143.144 22.5212H136.3C136.673 20.4513 137.757 19.1281 139.857 19.1281ZM140.162 29.6119C137.892 29.6119 136.605 28.1531 136.266 25.812H148.734C148.768 22.2836 147.752 19.2638 145.685 17.364C144.194 16.0069 142.229 15.1925 139.756 15.1925C134.47 15.1925 130.845 19.162 130.845 24.3532C130.845 29.6119 134.369 33.5818 140.095 33.5818C142.297 33.5818 144.059 33.005 145.516 31.9871C147.04 30.9353 148.057 29.4425 148.429 27.8819H143.042C142.568 28.9675 141.619 29.6119 140.162 29.6119Z" fill="#E60023"/>
<path d="M174.759 28.9765C174.503 28.9866 174.16 29.0015 173.844 29.0015C172.658 29.0015 171.913 28.6621 171.913 27.305V19.1621H174.759V15.7014H171.913V10.205H166.526V15.7014H164.831V19.1621H166.526V28.4925C166.526 32.2248 168.83 33.2764 172.048 33.2764C173.276 33.2764 174.205 33.1843 174.759 33.0759V28.9765Z" fill="#E60023"/>
<path d="M102.312 28.9844C102.091 28.9929 101.837 29.0015 101.599 29.0015C100.414 29.0015 99.6682 28.6621 99.6682 27.305V19.1621H102.312V15.7014H99.6682V10.205H94.2812V15.7014H92.4849V19.1621H94.2812V28.4925C94.2812 32.2248 96.585 33.2764 99.8038 33.2764C100.893 33.2764 101.746 33.2038 102.312 33.1119V28.9844Z" fill="#E60023"/>
<path d="M114.341 22.521C114.138 20.4514 112.85 19.128 111.054 19.128C108.954 19.128 107.869 20.4514 107.497 22.521H114.341ZM102.042 24.3531C102.042 19.162 105.667 15.1925 110.953 15.1925C113.426 15.1925 115.391 16.0067 116.882 17.3638C118.949 19.2639 119.965 22.2835 119.931 25.8121H107.463C107.802 28.153 109.089 29.612 111.359 29.612C112.816 29.612 113.765 28.9674 114.239 27.8817H119.626C119.253 29.4424 118.237 30.9352 116.712 31.9871C115.256 33.0049 113.494 33.5817 111.291 33.5817C105.565 33.5817 102.042 29.612 102.042 24.3531Z" fill="#E60023"/>
<path d="M59.3775 20.2139C61.5459 20.2139 62.7656 18.9246 62.7656 16.9905C62.7656 15.0567 61.5119 13.8692 59.3775 13.8692H55.1421V20.2139H59.3775ZM49.551 8.81389H59.1413C62.0888 8.81389 64.2572 9.6281 65.748 11.0532C67.3066 12.512 68.1875 14.5818 68.1875 17.0246C68.1875 21.6727 64.9688 24.9639 59.9882 24.9639H55.1421V33.0728H49.551V8.81389Z" fill="#E60023"/>
<path d="M41.97 21.6726C41.97 33.2043 32.6348 42.5526 21.1193 42.5526C9.6038 42.5526 0.268555 33.2043 0.268555 21.6726C0.268555 10.1408 9.6038 0.792593 21.1193 0.792593C32.6348 0.792593 41.97 10.1408 41.97 21.6726Z" fill="white"/>
<path d="M21.119 0.792348C9.60356 0.792348 0.268311 10.1407 0.268311 21.6724C0.268311 30.5182 5.76421 38.0802 13.5205 41.1225C13.3383 39.4705 13.1735 36.9298 13.5928 35.1263C13.9717 33.4967 16.0378 24.7476 16.0378 24.7476C16.0378 24.7476 15.4141 23.4967 15.4141 21.6475C15.4141 18.7442 17.0946 16.5766 19.187 16.5766C20.9659 16.5766 21.8251 17.9141 21.8251 19.5178C21.8251 21.3093 20.6861 23.9878 20.0983 26.4699C19.6071 28.5482 21.139 30.243 23.186 30.243C26.8918 30.243 29.7405 26.3299 29.7405 20.6815C29.7405 15.6821 26.1533 12.1867 21.031 12.1867C15.0983 12.1867 11.616 16.6429 11.616 21.2481C11.616 23.0427 12.3063 24.967 13.1677 26.0131C13.3381 26.2199 13.3631 26.401 13.3123 26.612C13.1541 27.2715 12.8023 28.6897 12.7333 28.98C12.6423 29.3622 12.4311 29.4433 12.0359 29.2591C9.43178 28.0453 7.80361 24.2326 7.80361 21.1702C7.80361 14.5836 12.5825 8.53472 21.5805 8.53472C28.8136 8.53472 34.4346 13.6962 34.4346 20.5941C34.4346 27.7901 29.9038 33.5814 23.615 33.5814C21.5021 33.5814 19.5158 32.4822 18.8359 31.1838C18.8359 31.1838 17.7904 35.1705 17.5369 36.1474C17.0662 37.961 15.7954 40.2344 14.9455 41.6213C16.8963 42.2261 18.9696 42.5524 21.119 42.5524C32.6347 42.5524 41.9699 33.204 41.9699 21.6724C41.9699 10.1407 32.6347 0.792348 21.119 0.792348Z" fill="#E60023"/>
</g>
</g>
<defs>
<clipPath id="clip0_149_775">
<rect width="174.85" height="42.7897" fill="white" transform="translate(0.0887451 0.27771)"/>
</clipPath>
</defs>
</svg>
