<svg width="32" height="32" viewBox="0 0 32 32" fill="none" xmlns="http://www.w3.org/2000/svg">
<g clip-path="url(#clip0_88_2618)">
<path d="M24.9294 25.9827C21.3507 25.9827 16.6014 24.3547 12.4787 22.0227C6.90536 18.8693 2.73336 14.704 1.8507 11.4107C1.43736 9.86934 1.79736 8.78668 2.17336 8.15068C4.46403 4.26001 12.8214 6.18801 19.52 9.97868C25.0934 13.132 29.2654 17.2973 30.148 20.5907C30.5614 22.132 30.2014 23.2147 29.8254 23.8507C28.944 25.3467 27.1667 25.9827 24.9294 25.9827ZM7.06536 8.66401C4.45336 8.66401 4.12136 9.57868 4.4267 10.72C4.9867 12.8107 8.15603 16.5133 13.7907 19.7027C20.8347 23.688 26.632 24.02 27.5267 22.4973C27.6947 22.212 27.7107 21.8027 27.5707 21.2813C27.0107 19.1907 23.8414 15.488 18.2067 12.2987C13.636 9.71201 9.58803 8.66401 7.06536 8.66401Z" fill="#0097A7"/>
<path d="M18.6667 16C18.6667 17.472 17.472 18.6666 16 18.6666C14.528 18.6666 13.3334 17.472 13.3334 16C13.3334 14.528 14.528 13.3333 16 13.3333C17.472 13.3333 18.6667 14.528 18.6667 16Z" fill="#607D8B"/>
<path d="M16 32C11.6227 32 9.33337 23.9507 9.33337 16C9.33337 8.04933 11.6227 0 16 0C20.3774 0 22.6667 8.04933 22.6667 16C22.6667 23.9507 20.3774 32 16 32ZM16 2.66667C14.408 2.66667 12 7.984 12 16C12 24.016 14.408 29.3333 16 29.3333C17.592 29.3333 20 24.016 20 16C20 7.984 17.592 2.66667 16 2.66667Z" fill="#00BCD4"/>
<path d="M18.8534 7.14664C17.9067 7.43997 16.9467 7.81331 16 8.22664C17.0934 8.69331 18.1734 9.22664 19.2267 9.81331L19.4667 9.73331C19.2934 8.78664 19.08 7.91997 18.8534 7.14664ZM29.8267 8.14664C28.52 5.93331 25.2534 5.59997 21.44 6.43997C21.68 7.25331 21.88 8.11997 22.04 9.01331C23.1467 8.77331 24.12 8.66664 24.9334 8.66664C27.6187 8.66664 27.8494 9.64264 27.5734 10.72C27.3334 11.6133 26.6134 12.8133 25.4267 14.1466C23.0214 16.7866 19.3107 19.3213 16 20.8533C17.1334 21.4 18.2134 21.84 19.2267 22.1866C21.4267 20.928 24.5614 19.0213 27.32 16C28.7734 14.4133 29.7734 12.84 30.1467 11.4133C30.4547 10.276 30.404 9.15064 29.8267 8.14664ZM19.4667 9.73331C19.2934 8.78664 19.08 7.91997 18.8534 7.14664C17.9067 7.43997 16.9467 7.81331 16 8.22664C17.0934 8.69331 18.1734 9.22664 19.2267 9.81331L19.4667 9.73331ZM12.5334 22.2666C12.7067 23.2133 12.92 24.0933 13.1467 24.8666C14.0934 24.56 15.0534 24.2 16 23.7866C14.9067 23.3066 13.8134 22.7733 12.7734 22.1866L12.5334 22.2666ZM8.48004 16C10.824 13.9906 13.5014 12.304 16 11.1466C14.8667 10.6 13.7867 10.16 12.7734 9.81331C10.5734 11.072 8.60404 12.3293 6.57337 14.1466C4.75204 15.728 2.46804 18.236 1.85337 20.5866C1.08537 23.4573 2.70137 25.9866 7.0667 25.9866C8.1467 25.9866 9.32004 25.84 10.56 25.56C10.32 24.7466 10.12 23.88 9.96004 22.9866C7.45337 23.52 3.7867 23.7773 4.4267 21.28C4.93604 19.3826 7.02004 17.2973 8.48004 16Z" fill="#4DD0E1"/>
<path d="M12.092 18.6787C12.176 19.88 12.3146 21.0013 12.4933 22.0307C12.5866 22.0827 12.68 22.136 12.7733 22.1867H12.7746C13.8226 22.7667 14.9066 23.3 16 23.7733V20.8547C15.2813 20.5107 14.544 20.1267 13.792 19.7013C13.1986 19.3653 12.632 19.024 12.092 18.6787ZM8.48529 15.996C8.48263 15.9973 8.48129 15.9987 8.47996 16C7.89863 16.5173 7.21729 17.16 6.57596 17.8653C7.47196 18.656 8.46929 19.436 9.54663 20.184C9.42796 19.0467 9.35863 17.88 9.33863 16.7093C9.04129 16.4707 8.75596 16.232 8.48529 15.996ZM13.144 7.14C12.9146 7.916 12.7093 8.78133 12.5373 9.72667C13.0346 9.89467 13.5466 10.084 14.0733 10.296C14.5373 10.4813 15.0133 10.6867 15.5 10.9107C15.6653 10.9867 15.832 11.0653 16 11.1453V8.22667C15.048 7.81467 14.0893 7.44933 13.144 7.14ZM7.06929 6.01733C4.83329 6.01733 3.05463 6.65333 2.17329 8.14933C1.79863 8.78533 1.43863 9.868 1.85196 11.4093C2.23196 12.828 3.22263 14.4093 4.67329 16.0013C5.30529 15.3067 5.96529 14.6747 6.57463 14.1467C6.57729 14.144 6.58129 14.1413 6.58396 14.1387C5.39063 12.8133 4.66796 11.6173 4.42796 10.72C4.12129 9.58 4.45463 8.664 7.06663 8.664C7.88129 8.664 8.85463 8.77333 9.95196 9.008C10.12 8.108 10.3226 7.24533 10.5586 6.432C9.32263 6.164 8.14396 6.01733 7.06929 6.01733Z" fill="#008391"/>
<path d="M16 13.3333C14.528 13.3333 13.3334 14.528 13.3334 16C13.3334 17.472 14.528 18.6666 16 18.6666V13.3333Z" fill="#546D79"/>
<path d="M12.0934 13.3107C11.156 13.916 10.2294 14.5787 9.34004 15.2893C9.33604 15.5267 9.33337 15.7627 9.33337 16C9.33337 16.236 9.33604 16.4733 9.34004 16.7093C9.36004 17.8787 9.42937 19.0453 9.54804 20.184C9.64804 21.1453 9.78271 22.0853 9.95204 22.9893C9.95471 22.9893 9.95737 22.988 9.96004 22.988C10.12 23.8813 10.3214 24.748 10.56 25.5613C10.5587 25.5613 10.5587 25.5613 10.5574 25.5613C11.6547 29.3373 13.4827 32 16 32V29.3333C14.9747 29.3333 13.6107 27.128 12.7707 23.4173C12.6854 23.048 12.6054 22.6627 12.5334 22.2667H12.536C12.5214 22.188 12.508 22.1107 12.4947 22.0307C12.316 21.0013 12.1774 19.88 12.0934 18.6787C12.032 17.8253 12 16.9307 12 16C12 15.0653 12.0334 14.168 12.0934 13.3107ZM16 0C13.484 0 11.6574 2.66 10.5587 6.432C10.3227 7.24533 10.12 8.108 9.95204 9.008C9.78271 9.912 9.64804 10.852 9.54804 11.8133C10.5014 11.1573 11.4734 10.5627 12.4934 9.97467C12.5067 9.89067 12.5214 9.80933 12.5374 9.72667C12.7094 8.78133 12.916 7.916 13.144 7.14C13.9787 4.308 15.116 2.66667 16 2.66667V0Z" fill="#00A4B9"/>
<path d="M12.7734 22.1867L12.536 22.2667H12.5334C12.6067 22.6627 12.6854 23.048 12.7707 23.4174C12.888 23.9307 13.0147 24.416 13.1467 24.8667C14.0934 24.56 15.0534 24.2 16 23.7867C14.9067 23.3067 13.8134 22.7734 12.7734 22.1867ZM12.7734 9.81335C12.68 9.86669 12.5854 9.92002 12.4934 9.97469C11.4734 10.5627 10.5014 11.1574 9.54804 11.8134C8.55204 12.4987 7.5747 13.252 6.58404 14.1387C6.58137 14.1414 6.57737 14.144 6.5747 14.1467C5.9667 14.6747 5.3067 15.3067 4.67337 16.0014C3.41204 17.3867 2.2627 19.0214 1.85337 20.5867C1.08537 23.4574 2.70137 25.9867 7.0667 25.9867C8.14537 25.9867 9.3187 25.84 10.5574 25.56H10.56C10.32 24.7467 10.12 23.88 9.96004 22.9867C9.95737 22.9867 9.9547 22.988 9.95204 22.988C9.03737 23.1827 7.96804 23.34 7.01204 23.34C5.34804 23.34 4.02137 22.864 4.42804 21.28C4.7347 20.1387 5.6107 18.9307 6.57737 17.8654C7.21737 17.16 7.89737 16.5174 8.48004 16C8.48137 15.9987 8.4827 15.9974 8.48537 15.996C8.76537 15.756 9.0507 15.52 9.34004 15.2894C10.2294 14.58 11.156 13.916 12.0934 13.3107C13.396 12.4694 14.7214 11.7387 16 11.1467C15.832 11.0654 15.6654 10.9867 15.5 10.9107C15.0134 10.6867 14.5374 10.4827 14.0734 10.296C13.6294 10.1187 13.196 9.95735 12.7734 9.81335Z" fill="#43B5C4"/>
</g>
<defs>
<clipPath id="clip0_88_2618">
<rect width="32" height="32" fill="white"/>
</clipPath>
</defs>
</svg>
