<svg width="143" height="50" viewBox="0 0 143 50" fill="none" xmlns="http://www.w3.org/2000/svg">
<path d="M129.185 20.1492C130.895 20.1492 132.281 18.7642 132.281 17.0557C132.281 15.3473 130.895 13.9623 129.185 13.9623C127.475 13.9623 126.088 15.3473 126.088 17.0557C126.088 18.7642 127.475 20.1492 129.185 20.1492Z" fill="#222222"/>
<path d="M84.9609 30.2466C86.4798 30.2466 87.3561 29.1085 87.2977 27.9995C87.2685 27.4158 87.2101 27.0364 87.1517 26.7446C86.217 22.7173 82.9455 19.7406 79.0605 19.7406C74.4454 19.7406 70.7065 23.9138 70.7065 29.0501C70.7065 34.1864 74.4454 38.3596 79.0605 38.3596C81.9523 38.3596 84.0262 37.309 85.5159 35.6455C86.2462 34.8284 86.1001 33.5735 85.2238 32.9607C84.4936 32.4645 83.5881 32.6396 82.9162 33.1941C82.2736 33.7486 81.0468 34.8576 79.0605 34.8576C76.7238 34.8576 74.7375 32.8439 74.2993 30.1882H84.9609V30.2466ZM79.0313 23.2718C81.1344 23.2718 82.9455 24.9061 83.6173 27.1532H74.4454C75.1172 24.8769 76.9282 23.2718 79.0313 23.2718Z" fill="#222222"/>
<path d="M70.8819 21.5791C70.8819 20.7036 70.2393 20.0032 69.4214 19.8573C66.8802 19.4779 64.485 20.4118 63.1121 22.1336V21.9001C63.1121 20.8203 62.2358 20.1491 61.3595 20.1491C60.3956 20.1491 59.6069 20.9371 59.6069 21.9001V36.2C59.6069 37.1338 60.308 37.951 61.2427 38.0093C62.265 38.0677 63.1121 37.2798 63.1121 36.2583V28.8749C63.1121 25.6064 65.5657 22.9215 68.9541 23.3009C69.0709 23.3009 69.1877 23.3009 69.3046 23.3009C70.1809 23.2426 70.8819 22.4838 70.8819 21.5791Z" fill="#222222"/>
<path d="M130.937 23.4469C130.937 22.4839 130.149 21.6959 129.185 21.6959C128.221 21.6959 127.432 22.4839 127.432 23.4469C127.432 23.5053 127.432 35.7039 127.432 36.2584C127.432 37.2215 128.221 38.0094 129.185 38.0094C130.149 38.0094 130.937 37.2215 130.937 36.2584C130.937 35.7331 130.937 23.5345 130.937 23.4469Z" fill="#222222"/>
<path d="M104.882 13.758C104.882 12.7949 104.094 12.007 103.13 12.007C102.166 12.007 101.377 12.7949 101.377 13.758V21.5499C100.179 20.3534 98.6898 19.7697 96.908 19.7697C92.2928 19.7697 88.554 23.9429 88.554 29.0792C88.554 34.2155 92.2928 38.3887 96.908 38.3887C98.6898 38.3887 100.209 37.7759 101.406 36.5793C101.552 37.3965 102.283 38.0093 103.13 38.0093C104.094 38.0093 104.882 37.2214 104.882 36.2583V13.758ZM96.9372 34.9159C94.2499 34.9159 92.0883 32.3186 92.0883 29.0792C92.0883 25.869 94.2499 23.2425 96.9372 23.2425C99.6245 23.2425 101.786 25.8399 101.786 29.0792C101.786 32.3186 99.5953 34.9159 96.9372 34.9159Z" fill="#222222"/>
<path d="M123.167 13.758C123.167 12.7949 122.379 12.007 121.415 12.007C120.451 12.007 119.662 12.7949 119.662 13.758V21.5499C118.465 20.3534 116.975 19.7697 115.193 19.7697C110.578 19.7697 106.839 23.9429 106.839 29.0792C106.839 34.2155 110.578 38.3887 115.193 38.3887C116.975 38.3887 118.494 37.7759 119.691 36.5793C119.837 37.3965 120.568 38.0093 121.415 38.0093C122.379 38.0093 123.167 37.2214 123.167 36.2583V13.758ZM115.193 34.9159C112.506 34.9159 110.344 32.3186 110.344 29.0792C110.344 25.869 112.506 23.2425 115.193 23.2425C117.88 23.2425 120.042 25.8399 120.042 29.0792C120.042 32.3186 117.88 34.9159 115.193 34.9159Z" fill="#222222"/>
<path d="M139.817 36.2876V23.2718H141.365C142.183 23.2718 142.913 22.659 142.972 21.8126C143.03 20.908 142.3 20.1492 141.423 20.1492H139.817V17.6978C139.817 16.7639 139.116 15.9468 138.181 15.8884C137.159 15.8301 136.312 16.618 136.312 17.6394V20.1784H134.851C134.033 20.1784 133.303 20.7912 133.245 21.6375C133.186 22.5422 133.917 23.301 134.793 23.301H136.283V36.3168C136.283 37.2798 137.071 38.0678 138.035 38.0678C139.057 38.0094 139.817 37.2506 139.817 36.2876Z" fill="#222222"/>
<path d="M25.3145 49.1282C38.8332 49.1282 49.7923 38.1791 49.7923 24.6726C49.7923 11.1661 38.8332 0.216919 25.3145 0.216919C11.7958 0.216919 0.83667 11.1661 0.83667 24.6726C0.83667 38.1791 11.7958 49.1282 25.3145 49.1282Z" fill="#222222"/>
<path d="M41.6428 24.6725C41.6428 22.6881 40.0363 21.1122 38.0792 21.1122C37.1153 21.1122 36.239 21.4916 35.5964 22.1044C33.1428 20.3534 29.7837 19.2153 26.0448 19.0693L27.6805 11.4233L32.9967 12.5614C33.0552 13.9039 34.1651 14.9837 35.538 14.9837C36.9401 14.9837 38.0792 13.8455 38.0792 12.4447C38.0792 11.0439 36.9401 9.90576 35.538 9.90576C34.5449 9.90576 33.6686 10.4894 33.2596 11.3357L27.33 10.0809C27.1548 10.0517 26.9795 10.0809 26.8627 10.1684C26.7166 10.256 26.629 10.4019 26.5998 10.577L24.7888 19.0985C20.9915 19.2153 17.5739 20.3534 15.0911 22.1336C14.4485 21.5207 13.5722 21.1414 12.6083 21.1414C10.622 21.1414 9.04468 22.7464 9.04468 24.7017C9.04468 26.1609 9.92097 27.3866 11.1478 27.9411C11.0894 28.2913 11.0602 28.6415 11.0602 29.0209C11.0602 34.5073 17.4571 38.9724 25.3438 38.9724C33.2304 38.9724 39.6274 34.5365 39.6274 29.0209C39.6274 28.6707 39.5982 28.2913 39.5397 27.9411C40.7665 27.3866 41.6428 26.1317 41.6428 24.6725ZM17.165 27.2115C17.165 25.8107 18.3042 24.6725 19.7063 24.6725C21.1083 24.6725 22.2475 25.8107 22.2475 27.2115C22.2475 28.6123 21.1083 29.7504 19.7063 29.7504C18.3042 29.7796 17.165 28.6123 17.165 27.2115ZM31.3902 33.9528C29.6376 35.7038 26.3077 35.8206 25.3438 35.8206C24.3506 35.8206 21.0207 35.6747 19.2973 33.9528C19.0344 33.6902 19.0344 33.2816 19.2973 33.019C19.5602 32.7563 19.9692 32.7563 20.232 33.019C21.342 34.1279 23.6788 34.5073 25.3438 34.5073C27.0087 34.5073 29.3747 34.1279 30.4555 33.019C30.7184 32.7563 31.1273 32.7563 31.3902 33.019C31.6239 33.2816 31.6239 33.6902 31.3902 33.9528ZM30.9228 29.7796C29.5208 29.7796 28.3816 28.6415 28.3816 27.2407C28.3816 25.8399 29.5208 24.7017 30.9228 24.7017C32.3249 24.7017 33.4641 25.8399 33.4641 27.2407C33.4641 28.6123 32.3249 29.7796 30.9228 29.7796Z" fill="white"/>
</svg>
