<svg width="24" height="24" viewBox="0 0 24 24" fill="none" xmlns="http://www.w3.org/2000/svg">
<g clip-path="url(#clip0_88_1466)">
<path d="M7.38683 12.4779C7.37164 12.4779 7.35644 12.4773 7.34106 12.4764L0.73351 12.0639C0.482106 12.0483 0.25652 11.9046 0.136037 11.6836C0.0157366 11.4626 0.0172014 11.1951 0.140248 10.9753C0.174855 10.9134 1.00762 9.44512 2.5935 8.16448C4.73656 6.43413 7.2279 5.87291 9.79797 6.54161C10.0113 6.59709 10.1882 6.74577 10.2797 6.94627C10.3713 7.14678 10.3676 7.37785 10.2696 7.57524L8.0429 12.0707C7.91876 12.3212 7.66369 12.4779 7.38683 12.4779Z" fill="#FF5B5B"/>
<path d="M12.7135 24.0001C12.593 24.0001 12.4726 23.9704 12.3632 23.9107C12.1422 23.7902 11.9985 23.5648 11.9827 23.3134L11.5704 16.7059C11.5521 16.4116 11.7119 16.1349 11.9762 16.004L16.4716 13.7771C16.6691 13.6793 16.9 13.6756 17.1005 13.7672C17.3012 13.8586 17.4497 14.0356 17.5052 14.2489C18.1741 16.819 17.6129 19.3104 15.8823 21.4534C14.6019 23.0393 13.1334 23.8719 13.0715 23.9067C12.9603 23.9689 12.8369 24.0001 12.7135 24.0001Z" fill="#FF193D"/>
<path d="M22.8723 5.909L18.1379 1.17462C17.9482 0.984922 17.6699 0.914243 17.4126 0.990232C14.2432 1.92773 11.6415 3.39807 9.67913 5.36023C9.26989 5.76965 8.87676 6.21332 8.51092 6.67877C7.44708 8.03137 6.55846 9.63062 5.86999 11.4322C5.43145 12.5804 5.07439 13.8105 4.80871 15.0883C4.34472 17.3201 4.31982 18.9197 4.3189 18.9868C4.31652 19.184 4.39379 19.374 4.53332 19.5136C4.67065 19.6509 4.85705 19.728 5.05114 19.728H5.06011C5.12731 19.7272 6.72692 19.7023 8.95861 19.2383C10.2363 18.9727 11.4664 18.6156 12.6149 18.1769C14.4163 17.4884 16.0155 16.6 17.3677 15.5363C17.8336 15.1703 18.2772 14.7772 18.6866 14.3677C20.649 12.4054 22.1193 9.80365 23.0566 6.63428C23.1328 6.37701 23.0619 6.09869 22.8723 5.909Z" fill="#E1F1FA"/>
<path d="M9.45881 18.1352L5.91168 14.5881C5.64984 14.3262 5.23364 14.3012 4.94214 14.5297C4.71564 14.7073 4.50012 14.8981 4.30164 15.0966C1.83356 17.5646 1.7572 21.3888 1.75519 21.5503C1.75263 21.7477 1.8299 21.9378 1.96961 22.0773C2.10693 22.2148 2.29315 22.2919 2.48724 22.2919C2.49036 22.2919 2.49347 22.2919 2.49658 22.2917C2.65808 22.2897 6.48242 22.2133 8.95032 19.7452C9.14881 19.5468 9.3396 19.3312 9.51722 19.1047C9.74573 18.8132 9.72065 18.397 9.45881 18.1352Z" fill="#FFF261"/>
<path d="M5.92658 11.2858L3.75037 13.4622C3.61304 13.5993 3.53577 13.7855 3.53577 13.9798C3.53577 14.1739 3.61304 14.3601 3.75037 14.4974L9.5495 20.2966C9.68665 20.4339 9.87287 20.511 10.0671 20.511C10.2614 20.511 10.4475 20.4339 10.5848 20.2966L12.761 18.1204L5.92658 11.2858Z" fill="#044763"/>
<path d="M15.4267 10.8539C14.8301 10.8539 14.2691 10.6216 13.8472 10.1997C12.9764 9.32886 12.9764 7.91199 13.8472 7.04095C14.2691 6.61908 14.8301 6.38672 15.4267 6.38672C16.0233 6.38672 16.5843 6.61908 17.0062 7.04095C17.428 7.46283 17.6604 8.02368 17.6604 8.62042C17.6604 9.21698 17.428 9.77783 17.0062 10.1997C16.5843 10.6216 16.0233 10.8539 15.4267 10.8539Z" fill="#06CCAB"/>
<path d="M15.4264 11.5701C14.6385 11.5701 13.8978 11.2632 13.3408 10.7062C12.1907 9.55609 12.1907 7.68475 13.3408 6.53467C13.8978 5.97766 14.6387 5.67078 15.4264 5.67078C16.2143 5.67078 16.955 5.97766 17.5122 6.53467C18.0694 7.09186 18.3761 7.83252 18.3761 8.62042C18.3761 9.40833 18.0694 10.149 17.5122 10.7062C16.955 11.2632 16.2143 11.5701 15.4264 11.5701ZM15.4264 7.13507C15.0298 7.13507 14.6566 7.28961 14.3761 7.57013C13.7971 8.14929 13.7971 9.09155 14.3761 9.67072C14.6566 9.95123 15.0298 10.1058 15.4264 10.1058C15.8232 10.1058 16.1962 9.95123 16.4767 9.67072C16.7572 9.3902 16.9118 9.01721 16.9118 8.62042C16.9118 8.22363 16.7572 7.85065 16.4767 7.57013C16.1962 7.28961 15.8232 7.13507 15.4264 7.13507Z" fill="#044763"/>
<path d="M23.8325 0.214551C23.6928 0.0748419 23.5016 -0.00371036 23.3053 0.000134854C23.1967 0.00141659 20.6085 0.0449957 17.4126 0.990187L23.0566 6.63423C24.0018 3.43831 24.0454 0.850111 24.0467 0.741529C24.0493 0.544141 23.972 0.354078 23.8325 0.214551Z" fill="#FF5B5B"/>
<path d="M22.8723 5.90906L20.5051 3.54187L4.53333 19.5136C4.67065 19.6509 4.85687 19.728 5.05096 19.728H5.06012C5.12714 19.7273 6.72675 19.7024 8.95862 19.2384C10.2363 18.9727 11.4663 18.6157 12.6147 18.1769C14.4163 17.4885 16.0155 16.6 17.3677 15.5364C17.8334 15.1704 18.2772 14.7772 18.6865 14.3678C20.6488 12.4055 22.1191 9.80371 23.0565 6.63434C23.1328 6.37708 23.062 6.09876 22.8723 5.90906Z" fill="#CDEBFC"/>
<path d="M9.45887 18.1351L7.68531 16.3616L1.96948 22.0772V22.0774C2.10699 22.2147 2.29321 22.2918 2.4873 22.2918H2.49646C2.65814 22.2898 6.4823 22.2133 8.95038 19.7452C9.14887 19.5467 9.33966 19.3312 9.51709 19.1047C9.74579 18.8132 9.72089 18.397 9.45887 18.1351Z" fill="#FDBF00"/>
<path d="M9.34381 14.703L6.64978 17.397L9.54944 20.2967C9.68659 20.4338 9.8728 20.5111 10.0671 20.5111C10.2614 20.5111 10.4474 20.4338 10.5847 20.2967L12.7609 18.1203L9.34381 14.703Z" fill="white"/>
<path d="M17.0061 7.04102C17.0059 7.04102 17.0059 7.04102 17.0059 7.04102L13.8472 10.1998H13.8474C14.269 10.6216 14.8301 10.854 15.4266 10.854C16.0232 10.854 16.5842 10.6216 17.0061 10.1998C17.428 9.77789 17.6603 9.21704 17.6603 8.62048C17.6602 8.02393 17.428 7.46289 17.0061 7.04102Z" fill="#1CADB5"/>
<path d="M17.5122 6.53467L16.4767 7.57013C16.7573 7.85065 16.9118 8.22363 16.9118 8.62042C16.9118 9.01721 16.7573 9.3902 16.4767 9.67072C16.1962 9.95123 15.8232 10.1058 15.4265 10.1058C15.0297 10.1058 14.6567 9.95123 14.3762 9.67072C14.3762 9.67072 14.3762 9.67072 14.3762 9.67053L13.3407 10.706V10.7062C13.8979 11.2632 14.6386 11.5701 15.4265 11.5701C16.2144 11.5701 16.955 11.2632 17.5122 10.7062C18.0692 10.149 18.3761 9.40833 18.3761 8.62042C18.3761 7.83252 18.0692 7.09186 17.5122 6.53467Z" fill="white"/>
<path d="M23.8323 0.214478L20.2346 3.81232L23.0566 6.63434C24.0018 3.43842 24.0454 0.85022 24.0467 0.741638C24.0493 0.544251 23.972 0.354187 23.8323 0.214478Z" fill="#FF193D"/>
</g>
<defs>
<clipPath id="clip0_88_1466">
<rect width="24" height="24" fill="white"/>
</clipPath>
</defs>
</svg>
