<svg width="176" height="53" viewBox="0 0 176 53" fill="none" xmlns="http://www.w3.org/2000/svg">
<g clip-path="url(#clip0_146_755)">
<path d="M42.7661 23.7383C34.4408 18.7887 20.7083 18.3336 12.7607 20.7484C11.4844 21.1359 10.1348 20.4147 9.74812 19.137C9.3614 17.8588 10.0811 16.5086 11.3583 16.1201C20.4816 13.3475 35.6476 13.8832 45.2319 19.5789C46.3802 20.2609 46.7567 21.7451 46.0761 22.8927C45.3951 24.0418 43.9113 24.4206 42.7661 23.7383ZM42.4935 31.0695C41.9097 32.0184 40.6705 32.3157 39.7239 31.7335C32.7831 27.4622 22.1991 26.2249 13.9875 28.7202C12.9226 29.0423 11.7979 28.4413 11.4745 27.3772C11.1536 26.3111 11.7543 25.1872 12.8172 24.863C22.1979 22.0134 33.8591 23.3936 41.831 28.2982C42.7776 28.8817 43.0755 30.123 42.4935 31.0695ZM39.3332 38.1102C38.8693 38.8719 37.8781 39.1108 37.12 38.6465C31.0548 34.9356 23.4209 34.0973 14.4306 36.1533C13.5641 36.3522 12.7008 35.8085 12.5031 34.9414C12.3047 34.0741 12.8455 33.2099 13.7139 33.012C23.5522 30.7604 31.9917 31.7295 38.7993 35.894C39.5583 36.3579 39.7973 37.3507 39.3332 38.1102ZM27.4884 0.81623C13.2244 0.81623 1.66064 12.3922 1.66064 26.6721C1.66064 40.9533 13.2244 52.5289 27.4884 52.5289C41.753 52.5289 53.3161 40.9533 53.3161 26.6721C53.3161 12.3922 41.753 0.81623 27.4884 0.81623Z" fill="#1ED760"/>
<path d="M71.929 24.6861C67.4696 23.6215 66.6755 22.8742 66.6755 21.3046C66.6755 19.821 68.0708 18.8231 70.1452 18.8231C72.156 18.8231 74.1496 19.5811 76.2404 21.1415C76.3036 21.1888 76.3829 21.2076 76.4609 21.1953C76.5389 21.1835 76.6077 21.1409 76.6536 21.0761L78.8311 18.0033C78.9205 17.877 78.8961 17.7023 78.7755 17.6056C76.2876 15.6071 73.4859 14.6354 70.2112 14.6354C65.3962 14.6354 62.0329 17.5278 62.0329 21.667C62.0329 26.1056 64.9342 27.677 69.9478 28.89C74.215 29.8741 74.9352 30.6984 74.9352 32.1723C74.9352 33.8052 73.4788 34.8205 71.1352 34.8205C68.5324 34.8205 66.409 33.9427 64.0339 31.8836C63.975 31.8329 63.8942 31.8095 63.8196 31.8137C63.7412 31.8203 63.6694 31.8567 63.6194 31.9168L61.178 34.8257C61.0756 34.9464 61.0885 35.1267 61.2067 35.231C63.9704 37.7009 67.3688 39.0056 71.0365 39.0056C76.2249 39.0056 79.5777 36.1672 79.5777 31.7745C79.5777 28.0621 77.3621 26.009 71.929 24.6861Z" fill="#1ED760"/>
<path d="M95.0827 29.6617C95.0827 32.7966 93.1538 34.984 90.392 34.984C87.6616 34.984 85.602 32.6972 85.602 29.6617C85.602 26.6267 87.6616 24.3395 90.392 24.3395C93.1094 24.3395 95.0827 26.5772 95.0827 29.6617ZM91.3163 20.2832C89.0673 20.2832 87.2227 21.1699 85.7016 22.987V20.9418C85.7016 20.7803 85.5708 20.6487 85.4095 20.6487H81.4168C81.2555 20.6487 81.125 20.7803 81.125 20.9418V43.667C81.125 43.8285 81.2555 43.96 81.4168 43.96H85.4095C85.5708 43.96 85.7016 43.8285 85.7016 43.667V36.4939C87.223 38.2032 89.0679 39.038 91.3163 39.038C95.495 39.038 99.7252 35.8177 99.7252 29.6617C99.7252 23.5044 95.495 20.2832 91.3163 20.2832Z" fill="#1ED760"/>
<path d="M110.569 35.0168C107.706 35.0168 105.548 32.7144 105.548 29.6616C105.548 26.5961 107.631 24.3715 110.503 24.3715C113.383 24.3715 115.556 26.6738 115.556 29.7286C115.556 32.7938 113.458 35.0168 110.569 35.0168ZM110.569 20.2831C105.187 20.2831 100.971 24.4317 100.971 29.7286C100.971 34.968 105.158 39.073 110.503 39.073C115.903 39.073 120.132 34.9384 120.132 29.6616C120.132 24.4026 115.932 20.2831 110.569 20.2831Z" fill="#1ED760"/>
<path d="M131.624 20.6487H127.23V16.1514C127.23 15.9899 127.1 15.8587 126.939 15.8587H122.946C122.785 15.8587 122.653 15.9899 122.653 16.1514V20.6487H120.734C120.573 20.6487 120.443 20.7803 120.443 20.9418V24.3772C120.443 24.5386 120.573 24.67 120.734 24.67H122.653V33.5597C122.653 37.1522 124.44 38.9735 127.962 38.9735C129.394 38.9735 130.583 38.6774 131.702 38.0417C131.793 37.9908 131.85 37.8926 131.85 37.7882V34.5167C131.85 34.4156 131.797 34.3206 131.711 34.2675C131.624 34.2129 131.516 34.2101 131.427 34.2542C130.658 34.6416 129.914 34.8205 129.083 34.8205C127.802 34.8205 127.23 34.2384 127.23 32.9333V24.67H131.624C131.786 24.67 131.915 24.5386 131.915 24.3772V20.9418C131.915 20.7803 131.786 20.6487 131.624 20.6487Z" fill="#1ED760"/>
<path d="M146.933 20.6663V20.1139C146.933 18.489 147.556 17.7643 148.951 17.7643C149.784 17.7643 150.453 17.9298 151.201 18.1799C151.294 18.2089 151.39 18.1944 151.465 18.1391C151.542 18.0839 151.585 17.9952 151.585 17.9014V14.5328C151.585 14.4041 151.503 14.2901 151.379 14.2525C150.588 14.0169 149.576 13.7748 148.06 13.7748C144.372 13.7748 142.423 15.854 142.423 19.7854V20.6314H140.504C140.343 20.6314 140.211 20.7626 140.211 20.9241V24.3772C140.211 24.5386 140.343 24.67 140.504 24.67H142.423V38.3819C142.423 38.5434 142.553 38.6746 142.714 38.6746H146.707C146.868 38.6746 146.999 38.5434 146.999 38.3819V24.67H150.727L156.438 38.3783C155.79 39.8186 155.152 40.1052 154.282 40.1052C153.579 40.1052 152.838 39.8948 152.08 39.4799C152.009 39.4406 151.925 39.4342 151.848 39.458C151.772 39.4851 151.707 39.5417 151.675 39.6161L150.322 42.5885C150.257 42.7289 150.312 42.8939 150.447 42.9667C151.86 43.7327 153.136 44.0597 154.712 44.0597C157.66 44.0597 159.29 42.6845 160.727 38.9856L167.654 21.0652C167.689 20.9751 167.678 20.8735 167.623 20.7932C167.568 20.7142 167.48 20.6663 167.383 20.6663H163.226C163.102 20.6663 162.99 20.7454 162.95 20.8624L158.691 33.0392L154.027 20.8543C153.985 20.741 153.876 20.6663 153.754 20.6663H146.933Z" fill="#1ED760"/>
<path d="M138.058 20.6488H134.065C133.904 20.6488 133.773 20.7803 133.773 20.9418V38.3819C133.773 38.5435 133.904 38.6747 134.065 38.6747H138.058C138.219 38.6747 138.351 38.5435 138.351 38.3819V20.9418C138.351 20.7803 138.219 20.6488 138.058 20.6488Z" fill="#1ED760"/>
<path d="M136.082 12.7078C134.5 12.7078 133.216 13.99 133.216 15.5734C133.216 17.1579 134.5 18.4414 136.082 18.4414C137.663 18.4414 138.946 17.1579 138.946 15.5734C138.946 13.99 137.663 12.7078 136.082 12.7078Z" fill="#1ED760"/>
<path d="M171.226 22.3835H170.495V23.3175H171.226C171.592 23.3175 171.81 23.1386 171.81 22.8502C171.81 22.5464 171.592 22.3835 171.226 22.3835ZM171.701 23.7158L172.495 24.83H171.825L171.11 23.8081H170.495V24.83H169.934V21.8769H171.249C171.934 21.8769 172.385 22.228 172.385 22.8189C172.385 23.3029 172.106 23.5987 171.701 23.7158ZM171.078 20.8944C169.638 20.8944 168.549 22.0396 168.549 23.4425C168.549 24.8445 169.631 25.9746 171.063 25.9746C172.502 25.9746 173.592 24.83 173.592 23.4265C173.592 22.0245 172.51 20.8944 171.078 20.8944ZM171.063 26.256C169.483 26.256 168.253 24.9853 168.253 23.4425C168.253 21.8994 169.499 20.6144 171.078 20.6144C172.658 20.6144 173.888 21.8849 173.888 23.4265C173.888 24.9696 172.643 26.256 171.063 26.256Z" fill="#1ED760"/>
</g>
<defs>
<clipPath id="clip0_146_755">
<rect width="174.85" height="52.5013" fill="white" transform="translate(0.349121 0.421997)"/>
</clipPath>
</defs>
</svg>
