<svg width="136" height="57" viewBox="0 0 136 57" fill="none" xmlns="http://www.w3.org/2000/svg">
<path fill-rule="evenodd" clip-rule="evenodd" d="M135.284 29.4779C135.284 19.8885 130.652 12.3219 121.797 12.3219C112.905 12.3219 107.525 19.8885 107.525 29.403C107.525 40.678 113.877 46.3717 122.993 46.3717C127.439 46.3717 130.801 45.3603 133.342 43.9369V36.4452C130.801 37.7188 127.887 38.5054 124.188 38.5054C120.564 38.5054 117.351 37.2318 116.94 32.8117H135.21C135.21 32.3247 135.284 30.3769 135.284 29.4779ZM116.828 25.9193C116.828 21.6865 119.406 19.926 121.76 19.926C124.039 19.926 126.467 21.6865 126.467 25.9193H116.828Z" fill="#635BFF"/>
<path fill-rule="evenodd" clip-rule="evenodd" d="M93.1038 12.3219C89.4425 12.3219 87.0887 14.045 85.7811 15.2437L85.2954 12.9212H77.0759V56.5978L86.4162 54.6125L86.4536 44.0118C87.7986 44.9857 89.7787 46.3717 93.0665 46.3717C99.7541 46.3717 105.844 40.9777 105.844 29.1033C105.807 18.2403 99.642 12.3219 93.1038 12.3219ZM90.8622 38.1308C88.6579 38.1308 87.3502 37.3442 86.4536 36.3703L86.4162 22.4732C87.3876 21.3869 88.7326 20.6377 90.8622 20.6377C94.262 20.6377 96.6158 24.4585 96.6158 29.3655C96.6158 34.385 94.2994 38.1308 90.8622 38.1308Z" fill="#635BFF"/>
<path fill-rule="evenodd" clip-rule="evenodd" d="M64.2236 10.1119L73.6013 8.08918V0.485107L64.2236 2.47041V10.1119Z" fill="#635BFF"/>
<path d="M73.6013 12.9587H64.2236V45.7349H73.6013V12.9587Z" fill="#635BFF"/>
<path fill-rule="evenodd" clip-rule="evenodd" d="M54.1734 15.7307L53.5756 12.9587H45.5056V45.7349H54.8459V23.522C57.0502 20.6377 60.7863 21.1621 61.9445 21.5742V12.9587C60.7489 12.5092 56.3777 11.6851 54.1734 15.7307Z" fill="#635BFF"/>
<path fill-rule="evenodd" clip-rule="evenodd" d="M35.4931 4.83032L26.377 6.77816L26.3396 36.7824C26.3396 42.3263 30.4867 46.4093 36.0161 46.4093C39.0797 46.4093 41.3214 45.8474 42.5543 45.1731V37.5691C41.3588 38.056 35.4557 39.7791 35.4557 34.2352V20.9375H42.5543V12.9588H35.4557L35.4931 4.83032Z" fill="#635BFF"/>
<path fill-rule="evenodd" clip-rule="evenodd" d="M10.2368 22.4732C10.2368 21.0123 11.4323 20.4504 13.4125 20.4504C16.2519 20.4504 19.8386 21.3119 22.678 22.8477V14.045C19.5771 12.8089 16.5135 12.3219 13.4125 12.3219C5.82818 12.3219 0.784424 16.2925 0.784424 22.9227C0.784424 33.2612 14.9816 31.613 14.9816 36.0706C14.9816 37.7937 13.4872 38.3556 11.395 38.3556C8.29401 38.3556 4.33373 37.082 1.1954 35.3589V44.274C4.66998 45.7723 8.18192 46.4091 11.395 46.4091C19.1661 46.4091 24.5087 42.5509 24.5087 35.8458C24.4714 24.6832 10.2368 26.6685 10.2368 22.4732Z" fill="#635BFF"/>
</svg>
