<svg width="56" height="56" viewBox="0 0 56 56" fill="none" xmlns="http://www.w3.org/2000/svg">
<path fill-rule="evenodd" clip-rule="evenodd" d="M24.3879 29.8743H31.5974V40.3743H24.3879V29.8743Z" fill="#9595FC"/>
<path fill-rule="evenodd" clip-rule="evenodd" d="M26.1409 29.8743H31.5974V40.3743H26.1409V29.8743Z" fill="#7676FF"/>
<path fill-rule="evenodd" clip-rule="evenodd" d="M16.0049 23.7726C18.452 28.8983 22.7348 32.9828 27.993 35.1989C33.2675 32.9828 37.5503 28.8983 39.9974 23.7726C40.8572 21.9701 41.2376 20.2504 41.2376 18.2665V8.79141H38.6744C35.6813 8.79141 33.1187 7.73324 31.0181 5.61691L27.9924 2.59058L24.983 5.61691C22.8666 7.73324 20.3035 8.79141 17.3267 8.79141H14.7635V18.2659C14.7647 20.2504 15.1445 21.9701 16.0049 23.7726Z" fill="#FEDF5B"/>
<path fill-rule="evenodd" clip-rule="evenodd" d="M29.0512 34.7194C33.8299 32.421 37.716 28.5518 39.9975 23.7725C40.8573 21.97 41.2376 20.2504 41.2376 18.2665V8.79138H40.775H38.675C35.682 8.79138 33.1194 7.73321 31.0188 5.61688L29.0512 3.64929L27.0836 5.61688C24.9836 7.73321 22.4205 8.79138 19.4443 8.79138H17.328H16.8817V18.2659C16.8817 20.2498 17.262 21.97 18.1219 23.772C20.4033 28.5512 24.2725 32.4205 29.0512 34.7194Z" fill="#FFB53B"/>
<path fill-rule="evenodd" clip-rule="evenodd" d="M14.7648 49.7992H41.2376V53.4042H14.7648V49.7992Z" fill="#9595FC"/>
<path fill-rule="evenodd" clip-rule="evenodd" d="M16.5007 49.7992H41.2376V53.4042H16.5007V49.7992Z" fill="#7676FF"/>
<path d="M34.6231 40.8701C34.342 41.0352 33.9785 40.936 33.8292 40.6549C33.6641 40.3743 33.7633 40.0266 34.0445 39.8615L36.5907 38.423L36.624 38.4067C39.435 36.8189 41.9154 34.7195 43.9652 32.2555C46.0156 29.7915 47.6029 26.9471 48.661 23.8718C49.091 22.5984 49.3721 21.3419 49.5045 20.0854C49.637 18.812 49.6206 17.5222 49.455 16.1998L48.4796 7.84938C48.43 7.51921 48.6616 7.23746 48.976 7.2048C49.3062 7.15521 49.588 7.38738 49.6375 7.71755L50.6129 16.068C50.778 17.4732 50.7949 18.8458 50.6625 20.2015C50.5137 21.5577 50.2162 22.897 49.753 24.2364C48.6616 27.4605 46.9915 30.4209 44.8583 32.9998C42.742 35.563 40.1455 37.7458 37.202 39.4153L37.1688 39.4316L34.6231 40.8701Z" fill="#FFB53B"/>
<path fill-rule="evenodd" clip-rule="evenodd" d="M41.1221 36.2734C41.9982 37.1338 43.3049 37.5299 44.5777 37.1834C45.8512 36.8357 46.7769 35.8277 47.1076 34.6371C46.2146 33.7604 44.9079 33.3806 43.6351 33.7271C42.3622 34.0742 41.4359 35.0659 41.1221 36.2734Z" fill="#FFB53B"/>
<path fill-rule="evenodd" clip-rule="evenodd" d="M40.9068 36.141C39.6999 35.8271 38.7077 34.9008 38.3606 33.6274C38.0135 32.354 38.3938 31.0479 39.27 30.1548C40.4606 30.4855 41.4692 31.4113 41.8162 32.6853C42.1633 33.9587 41.7667 35.2648 40.9068 36.141Z" fill="#FFB53B"/>
<path fill-rule="evenodd" clip-rule="evenodd" d="M46.3307 30.4197C47.306 31.1139 48.629 31.2959 49.8033 30.7499C50.9775 30.2214 51.7049 29.113 51.8204 27.9225C50.8451 27.2114 49.5384 27.0457 48.3479 27.5917C47.1742 28.1214 46.4462 29.2291 46.3307 30.4197Z" fill="#FFB53B"/>
<path fill-rule="evenodd" clip-rule="evenodd" d="M46.1154 30.3374C44.9085 30.2219 43.8008 29.4939 43.2717 28.3197C42.7257 27.146 42.9077 25.823 43.6024 24.8477C44.793 24.9632 45.9008 25.6906 46.4462 26.8648C46.9753 28.0385 46.8102 29.3615 46.1154 30.3374Z" fill="#FFB53B"/>
<path fill-rule="evenodd" clip-rule="evenodd" d="M49.6872 23.3426C50.7617 23.8717 52.0847 23.8221 53.1597 23.0947C54.2348 22.3673 54.7802 21.1604 54.6974 19.9698C53.606 19.4407 52.283 19.4903 51.2085 20.2008C50.1334 20.9288 49.6049 22.1351 49.6872 23.3426Z" fill="#FFB53B"/>
<path fill-rule="evenodd" clip-rule="evenodd" d="M49.4393 23.293C48.2487 23.3759 47.0418 22.8304 46.3144 21.7723C45.5864 20.6972 45.5368 19.3748 46.0664 18.2834C47.2734 18.2005 48.4809 18.7465 49.2083 19.8216C49.9188 20.8786 49.9684 22.2185 49.4393 23.293Z" fill="#FFB53B"/>
<path fill-rule="evenodd" clip-rule="evenodd" d="M50.2163 15.5546C51.4068 15.918 52.7298 15.6374 53.7052 14.7443C54.6642 13.8343 55.0113 12.5119 54.7301 11.305C53.5558 10.9573 52.2165 11.2222 51.2575 12.1316C50.2828 13.041 49.9357 14.3477 50.2163 15.5546Z" fill="#FFB53B"/>
<path fill-rule="evenodd" clip-rule="evenodd" d="M49.9683 15.5546C48.7614 15.8352 47.4547 15.4718 46.5453 14.5128C45.6359 13.5538 45.371 12.2145 45.7187 11.0239C46.9256 10.7433 48.2486 11.0904 49.158 12.0657C50.0674 13.0247 50.3323 14.364 49.9683 15.5546Z" fill="#FFB53B"/>
<path d="M21.9573 39.8615C22.2221 40.0266 22.3213 40.3743 22.1725 40.6549C22.0069 40.936 21.6598 41.0352 21.3786 40.8701L18.8324 39.431L18.7991 39.4147C15.8556 37.7452 13.2598 35.5624 11.1429 32.9992C8.99329 30.4197 7.33954 27.4599 6.23179 24.2358C5.78554 22.8964 5.48804 21.5571 5.33871 20.2009C5.18996 18.8452 5.20629 17.4726 5.37196 16.0674L6.36421 7.71693C6.39746 7.38677 6.69496 7.1546 7.00879 7.20419C7.33954 7.23744 7.55421 7.5186 7.52096 7.84877L6.52871 16.1992C6.37996 17.5222 6.36362 18.8119 6.49546 20.0848C6.62787 21.3413 6.90846 22.5984 7.33896 23.8712C8.38079 26.9465 9.98437 29.7909 12.0348 32.2549C14.0683 34.7189 16.5486 36.8183 19.3603 38.4061L19.3935 38.4224L21.9573 39.8615Z" fill="#FFB53B"/>
<path fill-rule="evenodd" clip-rule="evenodd" d="M14.8802 36.2734C14.0041 37.1338 12.6974 37.5299 11.4246 37.1834C10.1348 36.8357 9.20907 35.8277 8.89465 34.6371C9.77082 33.7604 11.0775 33.3806 12.3672 33.7271C13.6401 34.0742 14.5658 35.0659 14.8802 36.2734Z" fill="#FEDF5B"/>
<path fill-rule="evenodd" clip-rule="evenodd" d="M14.8803 36.2734C14.3512 36.7861 13.6733 37.1338 12.9459 37.2656C12.8135 37.2324 12.698 37.216 12.5656 37.1828C11.2922 36.8351 10.3658 35.8271 10.052 34.6365C10.5811 34.1075 11.2589 33.7598 11.9863 33.6443C12.1188 33.6606 12.2343 33.6939 12.3667 33.7271C13.6401 34.0742 14.5658 35.0659 14.8803 36.2734Z" fill="#FFB53B"/>
<path fill-rule="evenodd" clip-rule="evenodd" d="M15.0949 36.141C16.2855 35.8271 17.2941 34.9008 17.6412 33.6274C17.9883 32.354 17.5916 31.0479 16.7318 30.1548C15.5249 30.4855 14.5326 31.4113 14.1855 32.6853C13.8384 33.9587 14.2188 35.2648 15.0949 36.141Z" fill="#FFB53B"/>
<path fill-rule="evenodd" clip-rule="evenodd" d="M9.67171 30.4197C8.67946 31.1139 7.37337 31.2959 6.19912 30.7499C5.02487 30.2214 4.28112 29.113 4.16504 27.9225C5.15729 27.2114 6.46337 27.0457 7.63762 27.5917C8.81129 28.1214 9.55562 29.2291 9.67171 30.4197Z" fill="#FEDF5B"/>
<path fill-rule="evenodd" clip-rule="evenodd" d="M9.67164 30.4197C9.19214 30.7668 8.64672 30.982 8.06747 31.0479C7.72039 30.9984 7.37331 30.9155 7.04256 30.7499C5.86831 30.2214 5.14089 29.113 5.02539 27.9224C5.50489 27.5748 6.05031 27.3601 6.62956 27.2942C6.96031 27.3438 7.30739 27.4266 7.63814 27.5917C8.81122 28.1214 9.55556 29.2291 9.67164 30.4197Z" fill="#FFB53B"/>
<path fill-rule="evenodd" clip-rule="evenodd" d="M9.88634 30.3374C11.0933 30.2219 12.1847 29.4939 12.7301 28.3197C13.2592 27.146 13.0941 25.823 12.3993 24.8477C11.1924 24.9632 10.0847 25.6906 9.55559 26.8648C9.02651 28.0391 9.19217 29.3615 9.88634 30.3374Z" fill="#FFB53B"/>
<path fill-rule="evenodd" clip-rule="evenodd" d="M6.3146 23.3426C5.2401 23.8717 3.90077 23.8221 2.84202 23.0947C1.76752 22.3673 1.22152 21.1604 1.30435 19.9698C2.39577 19.4407 3.71877 19.4903 4.79327 20.2008C5.85202 20.9288 6.39744 22.1351 6.3146 23.3426Z" fill="#FEDF5B"/>
<path fill-rule="evenodd" clip-rule="evenodd" d="M6.31464 23.3426C5.98389 23.5083 5.60356 23.6075 5.24014 23.657C4.71106 23.5911 4.21464 23.4091 3.75206 23.0947C2.67756 22.3673 2.13156 21.1604 2.21439 19.9698C2.56147 19.8047 2.92547 19.6886 3.28947 19.639C3.81856 19.7055 4.33131 19.8875 4.79389 20.2014C5.85206 20.9288 6.39747 22.1351 6.31464 23.3426Z" fill="#FFB53B"/>
<path fill-rule="evenodd" clip-rule="evenodd" d="M6.54619 23.293C7.7531 23.3759 8.9606 22.8304 9.68802 21.7723C10.3991 20.6972 10.4487 19.3748 9.9196 18.2834C8.72902 18.2005 7.5221 18.7465 6.79469 19.8216C6.06669 20.8786 6.0171 22.2185 6.54619 23.293Z" fill="#FFB53B"/>
<path fill-rule="evenodd" clip-rule="evenodd" d="M5.78545 15.5546C4.59487 15.918 3.25553 15.6374 2.29653 14.7443C1.3212 13.8343 0.973534 12.5119 1.2547 11.305C2.44528 10.9573 3.78462 11.2222 4.74362 12.1316C5.71953 13.041 6.06662 14.3477 5.78545 15.5546Z" fill="#FEDF5B"/>
<path fill-rule="evenodd" clip-rule="evenodd" d="M5.78556 15.5545C5.61989 15.6041 5.43789 15.6374 5.27281 15.67C4.56172 15.5709 3.88389 15.2565 3.33847 14.7443C2.36256 13.8343 2.01547 12.5119 2.29664 11.305C2.46231 11.2554 2.64431 11.2221 2.80939 11.1895C3.52047 11.2886 4.19831 11.6025 4.74372 12.1315C5.71964 13.041 6.06672 14.3476 5.78556 15.5545Z" fill="#FFB53B"/>
<path fill-rule="evenodd" clip-rule="evenodd" d="M6.01714 15.5546C7.22406 15.8352 8.54706 15.4718 9.45648 14.5128C10.3659 13.5538 10.6301 12.2145 10.2667 11.0239C9.07614 10.7433 7.75314 11.0904 6.84373 12.0657C5.93431 13.0247 5.67006 14.364 6.01714 15.5546Z" fill="#FFB53B"/>
<path d="M31.3821 46.0705H24.6032C24.2789 46.0705 24.0164 45.808 24.0164 45.4837C24.0164 45.1593 24.2794 44.8969 24.6032 44.8969H31.3827C31.707 44.8969 31.9695 45.1593 31.9695 45.4837C31.9695 45.808 31.7064 46.0705 31.3821 46.0705Z" fill="black"/>
<path fill-rule="evenodd" clip-rule="evenodd" d="M29.4146 10.7759L30.6548 13.1238C30.9027 13.5707 31.283 13.8676 31.7958 13.9504L34.4085 14.4136C35.0041 14.5127 35.4667 14.91 35.6487 15.4887C35.847 16.0673 35.6983 16.6629 35.2847 17.0922L33.4326 19.0102C33.0855 19.3742 32.9368 19.8374 33.0027 20.3338L33.3667 22.9629C33.4495 23.5748 33.2179 24.1372 32.7221 24.4837C32.2426 24.8477 31.6307 24.8972 31.0853 24.633L28.7041 23.4587C28.2409 23.2435 27.7614 23.2435 27.2983 23.4587L24.9171 24.633C24.3711 24.8972 23.7598 24.8477 23.2633 24.4837C22.7838 24.1366 22.5359 23.5742 22.6188 22.9629L22.9991 20.3338C23.0656 19.8374 22.9163 19.3742 22.5692 19.0102L20.7171 17.0922C20.2872 16.6629 20.1548 16.0673 20.3368 15.4887C20.5351 14.91 20.9813 14.5127 21.5933 14.4136L24.206 13.9504C24.7024 13.8676 25.0991 13.5707 25.347 13.1238L26.5872 10.7759C26.8683 10.2468 27.3974 9.93298 27.993 9.93298C28.6049 9.9324 29.1334 10.2462 29.4146 10.7759Z" fill="#FF6699"/>
<path fill-rule="evenodd" clip-rule="evenodd" d="M29.4146 10.7759L30.6547 13.1238C30.9027 13.5706 31.283 13.8675 31.7957 13.9504L34.4085 14.4135C35.0041 14.5127 35.4667 14.91 35.6487 15.4886C35.847 16.0673 35.6982 16.6629 35.2847 17.0922L33.4326 19.0102C33.0855 19.3742 32.9367 19.8374 33.0027 20.3338L33.3667 22.9629C33.4495 23.5748 33.2179 24.1371 32.7221 24.4836C32.7057 24.5 32.6725 24.5332 32.6392 24.5495L30.4232 23.4587C29.9769 23.2435 29.4805 23.2435 29.0342 23.4587L28.8686 23.5415L28.7035 23.4587C28.2403 23.2435 27.7608 23.2435 27.2977 23.4587L25.0822 24.5495C25.0489 24.5332 25.0326 24.5 24.9993 24.4836C24.5029 24.1365 24.2719 23.5742 24.3547 22.9629L24.7351 20.3338C24.801 19.8374 24.6522 19.3742 24.2888 19.0102L22.4537 17.0922C22.0237 16.6629 21.8913 16.0673 22.0733 15.4886C22.2553 14.91 22.7179 14.5127 23.3135 14.4135L25.9426 13.9504C26.4384 13.8675 26.8357 13.5706 27.0667 13.1238L28.3237 10.7759C28.4562 10.528 28.6382 10.3127 28.8692 10.1803C29.0838 10.3127 29.2827 10.528 29.4146 10.7759Z" fill="#F92174"/>
<path fill-rule="evenodd" clip-rule="evenodd" d="M17.0957 49.7992H38.906V41.8128C38.906 41.0194 38.2614 40.3743 37.4675 40.3743H18.5342C17.7403 40.3743 17.0957 41.0189 17.0957 41.8128V49.7992Z" fill="#FEDF5B"/>
<path fill-rule="evenodd" clip-rule="evenodd" d="M18.8324 49.7992H38.9066V41.8128C38.9066 41.0194 38.262 40.3743 37.4681 40.3743H20.2872C19.4933 40.3743 18.8318 41.0189 18.8318 41.8128L18.8324 49.7992Z" fill="#FFB53B"/>
</svg>
