<svg width="257" height="21" viewBox="0 0 257 21" fill="none" xmlns="http://www.w3.org/2000/svg">
<path fill-rule="evenodd" clip-rule="evenodd" d="M255.926 6.74387C254.881 4.38608 245.905 3.39334 218.927 2.56604C193.754 1.78011 164.449 -0.494962 113.248 0.745982C74.1115 1.69737 25.3805 5.50293 25.3805 7.61254C25.3805 9.14303 27.2804 9.1844 45.4239 7.81936C62.19 6.57842 70.7868 6.28886 81.2834 5.95795C39.2019 9.1844 30.2251 11.294 7.80699 13.3209C-6.25184 14.6032 1.96498 18.2846 7.09455 17.9124C7.14205 17.9124 72.5441 13.2795 78.7186 13.5277C79.2886 13.5691 73.0666 14.3136 64.8498 15.1823C41.9092 17.6642 46.3263 21.8002 63.5199 19.8975C121.37 13.4859 175.801 11.5004 217.74 14.2719C230.991 15.1405 232.463 15.1405 232.463 14.065C232.463 12.1622 228.854 10.7149 223.202 10.4254C214.367 9.92897 180.36 8.52215 164.971 8.1085C163.784 8.06714 164.354 7.28162 165.399 7.19889C171.668 6.66115 221.444 7.07438 241.013 7.65349C255.404 8.06714 256.449 8.02618 255.926 6.74387Z" fill="#0BC1C0"/>
</svg>
