<svg width="32" height="28" viewBox="0 0 32 28" fill="none" xmlns="http://www.w3.org/2000/svg">
<path d="M19.7236 0.000244141C33.7913 9.38806 29.2294 19.7039 29.2294 19.7039C29.2294 19.7039 33.2253 24.1258 31.6194 27.9997C31.6194 27.9997 29.9614 25.2938 27.2095 25.2938C24.5495 25.2938 22.9756 27.9997 17.6057 27.9997C5.66189 27.9997 0 18.2119 0 18.2119C10.7638 25.1718 18.1176 20.2398 18.1176 20.2398C13.2577 17.4839 2.94994 4.28616 2.94994 4.28616C11.9358 11.788 15.8137 13.758 15.8137 13.758C13.4817 11.886 6.98386 2.71219 6.98386 2.71219C12.1838 7.87009 22.5196 15.0619 22.5196 15.0619C25.4835 7.11411 19.7236 0.000244141 19.7236 0.000244141Z" fill="#FF5722"/>
</svg>
