<svg width="24" height="24" viewBox="0 0 24 24" fill="none" xmlns="http://www.w3.org/2000/svg">
<g clip-path="url(#clip0_88_2123)">
<path d="M15.0943 12C15.0935 12.6523 15.0548 13.3039 14.9781 13.9517C16.3056 13.7011 17.5809 13.2269 18.7496 12.5494C18.7646 12.3677 18.7774 12.1855 18.7774 12C18.7774 11.8144 18.7646 11.6327 18.7496 11.451C17.5797 10.7768 16.3048 10.3042 14.9781 10.053C15.0546 10.6992 15.0934 11.3493 15.0943 12Z" fill="#020202"/>
<path d="M8.90573 12C8.90644 11.3493 8.94508 10.6992 9.02145 10.053C7.69486 10.3044 6.41997 10.777 5.25003 11.451C5.23503 11.6327 5.22217 11.8148 5.22217 12C5.22217 12.1851 5.23503 12.3677 5.25003 12.5494C6.41882 13.2268 7.69405 13.7009 9.02145 13.9517C8.94498 13.3039 8.90634 12.6522 8.90573 12Z" fill="#020202"/>
<path d="M10.377 5.42621C9.17995 5.72399 8.08661 6.34219 7.21437 7.21443C6.34213 8.08667 5.72393 9.18001 5.42615 10.3771C6.6031 9.79158 7.85919 9.38097 9.15471 9.1582C9.37806 7.86128 9.78984 6.60398 10.377 5.42621Z" fill="#020202"/>
<path d="M11.9975 15.0969C11.3472 15.0918 10.6979 15.0489 10.0526 14.9683C10.2998 16.2999 10.7746 17.5789 11.4562 18.7492C11.6362 18.7637 11.8166 18.7766 12 18.7766C12.1835 18.7766 12.3669 18.7637 12.5482 18.7492C13.227 17.578 13.7002 16.2992 13.9475 14.9683C13.3005 15.049 12.6494 15.0919 11.9975 15.0969Z" fill="#020202"/>
<path d="M5.427 13.6255C5.7251 14.8224 6.3436 15.9155 7.21608 16.7874C8.08856 17.6592 9.18205 18.277 10.3791 18.5743C9.78985 17.3996 9.37891 16.1436 9.15985 14.8478C7.86241 14.6255 6.60469 14.2136 5.427 13.6255Z" fill="#020202"/>
<path d="M13.6243 18.5734C14.8206 18.2756 15.9133 17.6578 16.7851 16.7861C17.657 15.9144 18.275 14.8218 18.573 13.6255C17.3954 14.2136 16.1378 14.6254 14.8406 14.8478C14.6208 16.1428 14.211 17.3982 13.6243 18.5734Z" fill="#020202"/>
<path d="M13.626 5.427C14.2108 6.6051 14.6212 7.86196 14.8444 9.15814C16.1399 9.38103 17.396 9.79164 18.573 10.377C18.2755 9.18054 17.6578 8.08766 16.7863 7.21561C15.9148 6.34356 14.8223 5.72525 13.626 5.427Z" fill="#020202"/>
<path d="M13.9496 9.02396C13.6975 7.6968 13.2254 6.42108 12.5528 5.24954C12.3698 5.23454 12.1864 5.22168 12 5.22168C11.8136 5.22168 11.6331 5.23454 11.4518 5.24911C10.776 6.41973 10.3022 7.69589 10.0504 9.02396C11.3457 8.87182 12.6543 8.87182 13.9496 9.02396Z" fill="#020202"/>
<path d="M9.76282 12C9.76616 12.6994 9.81512 13.3979 9.90939 14.091C11.297 14.2761 12.703 14.2761 14.0905 14.091C14.1848 13.3979 14.2338 12.6994 14.2371 12C14.2335 11.3019 14.1841 10.6048 14.0892 9.91326C12.7025 9.72919 11.2974 9.72919 9.91067 9.91326C9.81574 10.6048 9.76634 11.3019 9.76282 12Z" fill="#020202"/>
<path d="M22.7143 10.1246L22.092 10.0714C21.6715 10.0214 21.2719 9.8603 20.9344 9.60463C20.5968 9.34895 20.3335 9.00796 20.1715 8.61674C20.0095 8.22552 19.9546 7.79819 20.0125 7.37872C20.0705 6.95926 20.2391 6.5628 20.5011 6.23015L20.9018 5.75187C21.1298 5.48228 21.2477 5.13657 21.2318 4.78386C21.2159 4.43115 21.0674 4.09744 20.8161 3.84944L20.1501 3.18344C19.9022 2.93226 19.5685 2.7839 19.2159 2.76801C18.8633 2.75212 18.5177 2.86987 18.2481 3.09773L17.7698 3.49844C17.4426 3.76631 17.0481 3.93915 16.6293 3.9981C16.2105 4.05705 15.7836 3.99984 15.3951 3.83273C14.9969 3.67847 14.6491 3.41701 14.3903 3.07731C14.1314 2.73761 13.9716 2.33292 13.9286 1.90801L13.8754 1.28573C13.8461 0.934086 13.6853 0.606425 13.425 0.368115C13.1648 0.129805 12.8243 -0.00163494 12.4714 1.74668e-05H11.5286C11.1756 -0.00174311 10.835 0.129648 10.5747 0.367969C10.3144 0.60629 10.1535 0.934012 10.1241 1.28573L10.0714 1.90801C10.0213 2.32843 9.8601 2.72791 9.60441 3.06537C9.34871 3.40283 9.00774 3.6661 8.61657 3.82811C8.22539 3.99011 7.79813 4.045 7.37871 3.98714C6.95929 3.92927 6.56285 3.76074 6.23015 3.49887L5.75144 3.09816C5.48203 2.87014 5.13644 2.75228 4.78385 2.76817C4.43125 2.78407 4.09767 2.93254 3.84987 3.18387L3.18344 3.84987C2.93232 4.09797 2.78401 4.43165 2.76812 4.7843C2.75223 5.13695 2.86994 5.48262 3.09773 5.7523L3.49844 6.23015C3.7664 6.55735 3.93929 6.95189 3.99825 7.37068C4.0572 7.78947 3.99994 8.2164 3.83273 8.60486C3.67847 9.00311 3.41701 9.3509 3.07731 9.60974C2.73761 9.86858 2.33292 10.0284 1.90801 10.0714L1.28573 10.1246C0.934086 10.1539 0.606425 10.3147 0.368115 10.575C0.129805 10.8352 -0.00163494 11.1757 1.74668e-05 11.5286V12.4714C-0.00174311 12.8244 0.129648 13.165 0.367969 13.4253C0.60629 13.6856 0.934012 13.8465 1.28573 13.8759L1.90801 13.9307C2.3285 13.9807 2.72807 14.1418 3.06562 14.3975C3.40316 14.6532 3.6665 14.9942 3.82852 15.3854C3.99054 15.7766 4.04541 16.204 3.98747 16.6234C3.92953 17.0429 3.76088 17.4393 3.49887 17.772L3.09816 18.2503C2.87036 18.52 2.75266 18.8656 2.76855 19.2183C2.78444 19.5709 2.93275 19.9046 3.18387 20.1527L3.8503 20.8187C4.09825 21.0698 4.43179 21.218 4.7843 21.2339C5.1368 21.2498 5.48233 21.1322 5.75187 20.9044L6.23015 20.5033C6.63713 20.1649 7.1503 19.9807 7.67958 19.983C7.99723 19.9836 8.31164 20.0468 8.60486 20.169C9.00286 20.3231 9.3505 20.5843 9.60932 20.9237C9.86814 21.2631 10.0281 21.6674 10.0714 22.092L10.1246 22.7143C10.1539 23.0659 10.3147 23.3936 10.575 23.6319C10.8352 23.8702 11.1757 24.0016 11.5286 24H12.4714C12.8244 24.0017 13.165 23.8704 13.4253 23.632C13.6856 23.3937 13.8465 23.066 13.8759 22.7143L13.9307 22.092C13.9808 21.6716 14.142 21.2721 14.3977 20.9346C14.6534 20.5972 14.9944 20.3339 15.3856 20.1719C15.7767 20.0099 16.204 19.955 16.6234 20.0129C17.0429 20.0707 17.4393 20.2393 17.772 20.5011L18.2507 20.9018C18.5204 21.1295 18.8659 21.2471 19.2185 21.2313C19.571 21.2154 19.9046 21.0671 20.1527 20.8161L20.8187 20.1501C21.07 19.9021 21.2184 19.5684 21.2343 19.2157C21.2502 18.863 21.1324 18.5173 20.9044 18.2477L20.5037 17.7694C20.242 17.4369 20.0735 17.0407 20.0156 16.6215C19.9577 16.2024 20.0124 15.7753 20.1741 15.3843C20.3358 14.9932 20.5987 14.6523 20.9357 14.3965C21.2728 14.1406 21.6719 13.9791 22.092 13.9286L22.7143 13.8754C23.0659 13.8461 23.3936 13.6853 23.6319 13.425C23.8702 13.1648 24.0016 12.8243 24 12.4714V11.5286C24.0016 11.1757 23.8702 10.8352 23.6319 10.575C23.3936 10.3147 23.0659 10.1539 22.7143 10.1246ZM12.9107 19.5758C12.906 19.5758 12.9009 19.5758 12.8961 19.5784C12.5988 19.6148 12.2996 19.6338 12 19.6354C10.0504 19.641 8.17267 18.9003 6.75184 17.5654C5.33101 16.2304 4.47484 14.4024 4.35895 12.4563C4.24306 10.5102 4.87623 8.59352 6.1286 7.09941C7.38096 5.60529 9.15757 4.64702 11.094 4.42115L11.112 4.41858C11.4067 4.38324 11.7032 4.36521 12 4.36458C12.2967 4.36598 12.593 4.38458 12.8876 4.4203C12.897 4.4203 12.906 4.42244 12.915 4.42458C14.7699 4.64476 16.4795 5.53781 17.7198 6.93444C18.9601 8.33108 19.6449 10.1342 19.6443 12.0021C19.6438 13.87 18.958 15.6728 17.7169 17.0687C16.4758 18.4646 14.7657 19.3567 12.9107 19.5758Z" fill="#020202"/>
</g>
<defs>
<clipPath id="clip0_88_2123">
<rect width="24" height="24" fill="white"/>
</clipPath>
</defs>
</svg>
