<svg width="32" height="32" viewBox="0 0 32 32" fill="none" xmlns="http://www.w3.org/2000/svg">
<g clip-path="url(#clip0_41_2151)">
<path d="M30.5476 6.69225C30.1101 5.29529 28.9705 4.2302 27.5439 3.90185C19.8774 2.13721 12.1225 2.13721 4.45609 3.90185C3.02952 4.2302 1.89001 5.29529 1.45249 6.69225C-0.484329 12.8762 -0.484016 19.1247 1.45255 25.3079C1.89007 26.7049 3.02965 27.77 4.45616 28.0983C12.1225 29.863 19.8774 29.863 27.5439 28.0983C28.9704 27.77 30.11 26.7049 30.5475 25.3079C32.4841 19.1246 32.4843 12.8762 30.5476 6.69225Z" fill="url(#paint0_linear_41_2151)"/>
<path d="M0.157471 19.058C0.37093 21.1453 0.801926 23.2303 1.45259 25.3078C1.89011 26.7047 3.02969 27.7699 4.4562 28.0982C12.1226 29.8629 19.8774 29.8629 27.544 28.0982C28.9705 27.7699 30.11 26.7048 30.5476 25.3078C31.1982 23.2303 31.6292 21.1453 31.8427 19.058H0.157471Z" fill="url(#paint1_linear_41_2151)"/>
<path d="M27.544 28.0982C28.9705 27.7699 30.1101 26.7048 30.5476 25.3078C30.7825 24.5576 30.9884 23.8065 31.1663 23.0546L23.169 15.0573C23.0438 14.8732 22.8784 14.7092 22.6716 14.5795L14.1391 9.3536C13.0224 8.65324 11.697 9.33033 11.697 10.6485V21.3515C11.697 21.9473 11.8684 22.4372 12.2965 22.7311L18.9035 29.3382C21.7899 29.1723 24.6731 28.759 27.544 28.0982Z" fill="url(#paint2_linear_41_2151)"/>
<path d="M22.6716 14.5795L14.1392 9.22806C13.0225 8.5277 11.5715 9.3304 11.5715 10.6485V21.3515C11.5715 22.6697 13.0225 23.4724 14.1392 22.772L22.6716 17.4206C23.7194 16.7633 23.7194 15.2367 22.6716 14.5795Z" fill="url(#paint3_linear_41_2151)"/>
</g>
<defs>
<linearGradient id="paint0_linear_41_2151" x1="7.88681" y1="7.88679" x2="24.6152" y2="24.6151" gradientUnits="userSpaceOnUse">
<stop stop-color="#FF637B"/>
<stop offset="1" stop-color="#F90217"/>
</linearGradient>
<linearGradient id="paint1_linear_41_2151" x1="16.0001" y1="22.7138" x2="16.0001" y2="29.1814" gradientUnits="userSpaceOnUse">
<stop stop-color="#F90217" stop-opacity="0"/>
<stop offset="0.2669" stop-color="#E7010F" stop-opacity="0.267"/>
<stop offset="0.7232" stop-color="#CE0004" stop-opacity="0.723"/>
<stop offset="1" stop-color="#C50000"/>
</linearGradient>
<linearGradient id="paint2_linear_41_2151" x1="24.4215" y1="26.7185" x2="18.2938" y2="18.1523" gradientUnits="userSpaceOnUse">
<stop stop-color="#F90217" stop-opacity="0"/>
<stop offset="0.2669" stop-color="#E7010F" stop-opacity="0.267"/>
<stop offset="0.7232" stop-color="#CE0004" stop-opacity="0.723"/>
<stop offset="1" stop-color="#C50000"/>
</linearGradient>
<linearGradient id="paint3_linear_41_2151" x1="14.1688" y1="15.33" x2="17.8713" y2="19.0325" gradientUnits="userSpaceOnUse">
<stop stop-color="#EBEFF0"/>
<stop offset="1" stop-color="#E3E5E4"/>
</linearGradient>
<clipPath id="clip0_41_2151">
<rect width="32" height="32" fill="white"/>
</clipPath>
</defs>
</svg>
